<mxfile host="app.diagrams.net" modified="2024-04-01T20:41:50.667Z" agent="Mozilla/5.0 (Windows NT 10.0; Win64; x64) AppleWebKit/537.36 (KHTML, like Gecko) Chrome/123.0.0.0 Safari/537.36" etag="DXFF6GayHlcfnx3xDBIx" version="24.2.1" type="github" pages="2">
  <diagram id="C5RBs43oDa-KdzZeNtuy" name="Page-1">
    <mxGraphModel dx="2647" dy="1513" grid="1" gridSize="10" guides="1" tooltips="1" connect="1" arrows="1" fold="1" page="1" pageScale="1" pageWidth="200000" pageHeight="200000" math="0" shadow="0">
      <root>
        <mxCell id="WIyWlLk6GJQsqaUBKTNV-0" />
        <mxCell id="WIyWlLk6GJQsqaUBKTNV-1" parent="WIyWlLk6GJQsqaUBKTNV-0" />
        <mxCell id="EzpZir944E85K8thCq4u-3" value="&lt;span style=&quot;color: rgb(61, 71, 82); font-size: 20px; text-wrap: wrap;&quot;&gt;Instructor&lt;/span&gt;" style="shape=umlActor;verticalLabelPosition=bottom;verticalAlign=top;html=1;outlineConnect=0;fontSize=20;fontStyle=1" vertex="1" parent="WIyWlLk6GJQsqaUBKTNV-1">
          <mxGeometry x="570" y="1130" width="60" height="120" as="geometry" />
        </mxCell>
        <mxCell id="EzpZir944E85K8thCq4u-5" value="&lt;span style=&quot;color: rgb(61, 71, 82); font-size: 20px; text-wrap: wrap;&quot;&gt;Student&lt;/span&gt;" style="shape=umlActor;verticalLabelPosition=bottom;verticalAlign=top;html=1;outlineConnect=0;fontSize=20;fontStyle=1" vertex="1" parent="WIyWlLk6GJQsqaUBKTNV-1">
          <mxGeometry x="571" y="420" width="60" height="120" as="geometry" />
        </mxCell>
        <mxCell id="EzpZir944E85K8thCq4u-6" value="&lt;span style=&quot;color: rgb(61, 71, 82); font-size: 20px; text-wrap: wrap;&quot;&gt;User&lt;/span&gt;" style="shape=umlActor;verticalLabelPosition=bottom;verticalAlign=top;html=1;outlineConnect=0;fontSize=20;fontStyle=1" vertex="1" parent="WIyWlLk6GJQsqaUBKTNV-1">
          <mxGeometry x="571" y="783" width="60" height="120" as="geometry" />
        </mxCell>
        <mxCell id="EzpZir944E85K8thCq4u-7" value="&lt;span style=&quot;color: rgb(61, 71, 82); font-size: 20px; text-wrap: wrap;&quot;&gt;Admin&lt;/span&gt;" style="shape=umlActor;verticalLabelPosition=bottom;verticalAlign=top;html=1;outlineConnect=0;strokeWidth=2;fontSize=20;fontStyle=1" vertex="1" parent="WIyWlLk6GJQsqaUBKTNV-1">
          <mxGeometry x="2280" y="720" width="60" height="120" as="geometry" />
        </mxCell>
        <mxCell id="EzpZir944E85K8thCq4u-10" value="&lt;span style=&quot;color: rgb(61, 71, 82); font-size: 20px; text-wrap: wrap;&quot;&gt;AI&lt;/span&gt;" style="shape=umlActor;verticalLabelPosition=bottom;verticalAlign=top;html=1;outlineConnect=0;strokeWidth=2;fontSize=20;fontStyle=1" vertex="1" parent="WIyWlLk6GJQsqaUBKTNV-1">
          <mxGeometry x="2280" y="1080" width="60" height="120" as="geometry" />
        </mxCell>
        <mxCell id="EzpZir944E85K8thCq4u-12" value="" style="endArrow=none;html=1;rounded=0;exitX=0.5;exitY=0.5;exitDx=0;exitDy=0;exitPerimeter=0;entryX=0;entryY=1;entryDx=0;entryDy=0;" edge="1" parent="WIyWlLk6GJQsqaUBKTNV-1" source="EzpZir944E85K8thCq4u-6" target="EzpZir944E85K8thCq4u-13">
          <mxGeometry width="50" height="50" relative="1" as="geometry">
            <mxPoint x="1170" y="800" as="sourcePoint" />
            <mxPoint x="1220" y="750" as="targetPoint" />
          </mxGeometry>
        </mxCell>
        <mxCell id="EzpZir944E85K8thCq4u-13" value="&lt;font style=&quot;font-size: 15px;&quot;&gt;&lt;b&gt;View Courses&lt;/b&gt;&lt;/font&gt;" style="ellipse;whiteSpace=wrap;html=1;fillColor=default;" vertex="1" parent="WIyWlLk6GJQsqaUBKTNV-1">
          <mxGeometry x="1370" y="460" width="130" height="50" as="geometry" />
        </mxCell>
        <mxCell id="EzpZir944E85K8thCq4u-20" value="&lt;font style=&quot;font-size: 15px;&quot;&gt;&lt;b&gt;Login&lt;/b&gt;&lt;/font&gt;" style="ellipse;whiteSpace=wrap;html=1;fillColor=default;" vertex="1" parent="WIyWlLk6GJQsqaUBKTNV-1">
          <mxGeometry x="1180" y="850" width="130" height="50" as="geometry" />
        </mxCell>
        <mxCell id="EzpZir944E85K8thCq4u-21" value="&lt;font style=&quot;font-size: 15px;&quot;&gt;&lt;b&gt;Forgot password&lt;/b&gt;&lt;/font&gt;" style="ellipse;whiteSpace=wrap;html=1;fillColor=default;" vertex="1" parent="WIyWlLk6GJQsqaUBKTNV-1">
          <mxGeometry x="1255" y="750" width="130" height="50" as="geometry" />
        </mxCell>
        <mxCell id="EzpZir944E85K8thCq4u-22" value="&lt;font size=&quot;1&quot; style=&quot;&quot;&gt;&lt;b style=&quot;font-size: 14px;&quot;&gt;Authenticate User&lt;/b&gt;&lt;/font&gt;" style="ellipse;whiteSpace=wrap;html=1;fillColor=default;" vertex="1" parent="WIyWlLk6GJQsqaUBKTNV-1">
          <mxGeometry x="1450" y="870" width="130" height="50" as="geometry" />
        </mxCell>
        <mxCell id="EzpZir944E85K8thCq4u-23" value="" style="endArrow=none;html=1;rounded=0;entryX=0;entryY=0.5;entryDx=0;entryDy=0;exitX=0.5;exitY=0.5;exitDx=0;exitDy=0;exitPerimeter=0;" edge="1" parent="WIyWlLk6GJQsqaUBKTNV-1" source="EzpZir944E85K8thCq4u-6" target="EzpZir944E85K8thCq4u-20">
          <mxGeometry width="50" height="50" relative="1" as="geometry">
            <mxPoint x="766" y="878" as="sourcePoint" />
            <mxPoint x="1021" y="865" as="targetPoint" />
          </mxGeometry>
        </mxCell>
        <mxCell id="EzpZir944E85K8thCq4u-28" value="" style="endArrow=none;dashed=1;html=1;rounded=0;entryX=0.5;entryY=1;entryDx=0;entryDy=0;exitX=1;exitY=0;exitDx=0;exitDy=0;startArrow=open;startFill=0;strokeWidth=2;" edge="1" parent="WIyWlLk6GJQsqaUBKTNV-1" source="EzpZir944E85K8thCq4u-20" target="EzpZir944E85K8thCq4u-21">
          <mxGeometry width="50" height="50" relative="1" as="geometry">
            <mxPoint x="1380" y="920" as="sourcePoint" />
            <mxPoint x="1430" y="870" as="targetPoint" />
          </mxGeometry>
        </mxCell>
        <mxCell id="EzpZir944E85K8thCq4u-29" value="&amp;lt;&amp;lt;Extends&amp;gt;&amp;gt;" style="edgeLabel;html=1;align=center;verticalAlign=middle;resizable=0;points=[];" vertex="1" connectable="0" parent="EzpZir944E85K8thCq4u-28">
          <mxGeometry x="0.1275" relative="1" as="geometry">
            <mxPoint as="offset" />
          </mxGeometry>
        </mxCell>
        <mxCell id="EzpZir944E85K8thCq4u-30" value="" style="endArrow=open;dashed=1;html=1;rounded=0;entryX=0;entryY=0.5;entryDx=0;entryDy=0;exitX=1;exitY=1;exitDx=0;exitDy=0;strokeWidth=2;endFill=0;" edge="1" parent="WIyWlLk6GJQsqaUBKTNV-1" source="EzpZir944E85K8thCq4u-20" target="EzpZir944E85K8thCq4u-22">
          <mxGeometry width="50" height="50" relative="1" as="geometry">
            <mxPoint x="1350" y="910" as="sourcePoint" />
            <mxPoint x="1400" y="860" as="targetPoint" />
          </mxGeometry>
        </mxCell>
        <mxCell id="EzpZir944E85K8thCq4u-31" value="&amp;lt;&amp;lt;Include&amp;gt;&amp;gt;" style="edgeLabel;html=1;align=center;verticalAlign=middle;resizable=0;points=[];" vertex="1" connectable="0" parent="EzpZir944E85K8thCq4u-30">
          <mxGeometry x="-0.1541" relative="1" as="geometry">
            <mxPoint as="offset" />
          </mxGeometry>
        </mxCell>
        <mxCell id="EzpZir944E85K8thCq4u-32" value="" style="endArrow=none;html=1;rounded=0;entryX=1;entryY=0.5;entryDx=0;entryDy=0;exitX=0.5;exitY=0.5;exitDx=0;exitDy=0;exitPerimeter=0;" edge="1" parent="WIyWlLk6GJQsqaUBKTNV-1" source="EzpZir944E85K8thCq4u-7" target="EzpZir944E85K8thCq4u-20">
          <mxGeometry width="50" height="50" relative="1" as="geometry">
            <mxPoint x="776" y="888" as="sourcePoint" />
            <mxPoint x="1031" y="875" as="targetPoint" />
          </mxGeometry>
        </mxCell>
        <mxCell id="EzpZir944E85K8thCq4u-33" value="&lt;font style=&quot;font-size: 15px;&quot;&gt;&lt;b&gt;Register&lt;/b&gt;&lt;/font&gt;" style="ellipse;whiteSpace=wrap;html=1;fillColor=default;" vertex="1" parent="WIyWlLk6GJQsqaUBKTNV-1">
          <mxGeometry x="1130" y="910" width="130" height="50" as="geometry" />
        </mxCell>
        <mxCell id="EzpZir944E85K8thCq4u-34" value="" style="endArrow=none;html=1;rounded=0;entryX=0;entryY=0.5;entryDx=0;entryDy=0;exitX=0.5;exitY=0.5;exitDx=0;exitDy=0;exitPerimeter=0;" edge="1" parent="WIyWlLk6GJQsqaUBKTNV-1" source="EzpZir944E85K8thCq4u-6" target="EzpZir944E85K8thCq4u-33">
          <mxGeometry width="50" height="50" relative="1" as="geometry">
            <mxPoint x="776" y="888" as="sourcePoint" />
            <mxPoint x="1031" y="875" as="targetPoint" />
          </mxGeometry>
        </mxCell>
        <mxCell id="EzpZir944E85K8thCq4u-35" value="&lt;font style=&quot;font-size: 15px;&quot;&gt;&lt;b&gt;validate Information&lt;/b&gt;&lt;/font&gt;" style="ellipse;whiteSpace=wrap;html=1;fillColor=default;" vertex="1" parent="WIyWlLk6GJQsqaUBKTNV-1">
          <mxGeometry x="1360" y="930" width="130" height="50" as="geometry" />
        </mxCell>
        <mxCell id="EzpZir944E85K8thCq4u-37" value="" style="endArrow=open;dashed=1;html=1;rounded=0;entryX=0;entryY=0.5;entryDx=0;entryDy=0;exitX=1;exitY=0.5;exitDx=0;exitDy=0;strokeWidth=2;endFill=0;" edge="1" parent="WIyWlLk6GJQsqaUBKTNV-1" source="EzpZir944E85K8thCq4u-33" target="EzpZir944E85K8thCq4u-35">
          <mxGeometry width="50" height="50" relative="1" as="geometry">
            <mxPoint x="1301" y="903" as="sourcePoint" />
            <mxPoint x="1380" y="935" as="targetPoint" />
          </mxGeometry>
        </mxCell>
        <mxCell id="EzpZir944E85K8thCq4u-38" value="&amp;lt;&amp;lt;Include&amp;gt;&amp;gt;" style="edgeLabel;html=1;align=center;verticalAlign=middle;resizable=0;points=[];" vertex="1" connectable="0" parent="EzpZir944E85K8thCq4u-37">
          <mxGeometry x="-0.1541" relative="1" as="geometry">
            <mxPoint x="3" y="-3" as="offset" />
          </mxGeometry>
        </mxCell>
        <mxCell id="EzpZir944E85K8thCq4u-39" value="&lt;font style=&quot;font-size: 15px;&quot;&gt;&lt;b&gt;manage account&lt;/b&gt;&lt;/font&gt;" style="ellipse;whiteSpace=wrap;html=1;fillColor=default;" vertex="1" parent="WIyWlLk6GJQsqaUBKTNV-1">
          <mxGeometry x="1330" y="680" width="130" height="50" as="geometry" />
        </mxCell>
        <mxCell id="EzpZir944E85K8thCq4u-40" value="&lt;font style=&quot;font-size: 15px;&quot;&gt;&lt;b&gt;change profile picture&lt;/b&gt;&lt;/font&gt;" style="ellipse;whiteSpace=wrap;html=1;fillColor=default;" vertex="1" parent="WIyWlLk6GJQsqaUBKTNV-1">
          <mxGeometry x="1385" y="580" width="130" height="50" as="geometry" />
        </mxCell>
        <mxCell id="EzpZir944E85K8thCq4u-41" value="" style="endArrow=none;dashed=1;html=1;rounded=0;entryX=0.5;entryY=1;entryDx=0;entryDy=0;exitX=1;exitY=0;exitDx=0;exitDy=0;startArrow=open;startFill=0;strokeWidth=2;" edge="1" parent="WIyWlLk6GJQsqaUBKTNV-1" source="EzpZir944E85K8thCq4u-39" target="EzpZir944E85K8thCq4u-40">
          <mxGeometry width="50" height="50" relative="1" as="geometry">
            <mxPoint x="1271" y="867" as="sourcePoint" />
            <mxPoint x="1350" y="805" as="targetPoint" />
          </mxGeometry>
        </mxCell>
        <mxCell id="EzpZir944E85K8thCq4u-42" value="&amp;lt;&amp;lt;Extends&amp;gt;&amp;gt;" style="edgeLabel;html=1;align=center;verticalAlign=middle;resizable=0;points=[];" vertex="1" connectable="0" parent="EzpZir944E85K8thCq4u-41">
          <mxGeometry x="0.1275" relative="1" as="geometry">
            <mxPoint as="offset" />
          </mxGeometry>
        </mxCell>
        <mxCell id="EzpZir944E85K8thCq4u-44" value="" style="endArrow=none;html=1;rounded=0;entryX=0;entryY=1;entryDx=0;entryDy=0;exitX=0.5;exitY=0.5;exitDx=0;exitDy=0;exitPerimeter=0;" edge="1" parent="WIyWlLk6GJQsqaUBKTNV-1" source="EzpZir944E85K8thCq4u-6" target="EzpZir944E85K8thCq4u-39">
          <mxGeometry width="50" height="50" relative="1" as="geometry">
            <mxPoint x="730" y="888" as="sourcePoint" />
            <mxPoint x="1130" y="725" as="targetPoint" />
          </mxGeometry>
        </mxCell>
        <mxCell id="EzpZir944E85K8thCq4u-46" value="" style="endArrow=none;html=1;rounded=0;entryX=1;entryY=0.5;entryDx=0;entryDy=0;exitX=0.5;exitY=0.5;exitDx=0;exitDy=0;exitPerimeter=0;" edge="1" parent="WIyWlLk6GJQsqaUBKTNV-1" source="EzpZir944E85K8thCq4u-7" target="EzpZir944E85K8thCq4u-39">
          <mxGeometry width="50" height="50" relative="1" as="geometry">
            <mxPoint x="775" y="888" as="sourcePoint" />
            <mxPoint x="1349" y="723" as="targetPoint" />
          </mxGeometry>
        </mxCell>
        <mxCell id="EzpZir944E85K8thCq4u-47" value="&lt;span style=&quot;font-size: 15px;&quot;&gt;&lt;b&gt;change Language&lt;/b&gt;&lt;/span&gt;" style="ellipse;whiteSpace=wrap;html=1;fillColor=default;" vertex="1" parent="WIyWlLk6GJQsqaUBKTNV-1">
          <mxGeometry x="1240" y="580" width="130" height="50" as="geometry" />
        </mxCell>
        <mxCell id="EzpZir944E85K8thCq4u-48" value="" style="endArrow=none;dashed=1;html=1;rounded=0;entryX=0.5;entryY=1;entryDx=0;entryDy=0;exitX=0;exitY=0;exitDx=0;exitDy=0;startArrow=open;startFill=0;strokeWidth=2;" edge="1" parent="WIyWlLk6GJQsqaUBKTNV-1" source="EzpZir944E85K8thCq4u-39" target="EzpZir944E85K8thCq4u-47">
          <mxGeometry width="50" height="50" relative="1" as="geometry">
            <mxPoint x="1442" y="688" as="sourcePoint" />
            <mxPoint x="1508" y="642" as="targetPoint" />
          </mxGeometry>
        </mxCell>
        <mxCell id="EzpZir944E85K8thCq4u-49" value="&amp;lt;&amp;lt;Extends&amp;gt;&amp;gt;" style="edgeLabel;html=1;align=center;verticalAlign=middle;resizable=0;points=[];" vertex="1" connectable="0" parent="EzpZir944E85K8thCq4u-48">
          <mxGeometry x="0.1275" relative="1" as="geometry">
            <mxPoint as="offset" />
          </mxGeometry>
        </mxCell>
        <mxCell id="EzpZir944E85K8thCq4u-50" value="&lt;span style=&quot;font-size: 15px;&quot;&gt;&lt;b&gt;Log out&lt;/b&gt;&lt;/span&gt;" style="ellipse;whiteSpace=wrap;html=1;fillColor=default;" vertex="1" parent="WIyWlLk6GJQsqaUBKTNV-1">
          <mxGeometry x="1430" y="770" width="130" height="50" as="geometry" />
        </mxCell>
        <mxCell id="EzpZir944E85K8thCq4u-51" value="" style="endArrow=none;dashed=1;html=1;rounded=0;entryX=0;entryY=0;entryDx=0;entryDy=0;exitX=0.5;exitY=1;exitDx=0;exitDy=0;startArrow=open;startFill=0;strokeWidth=2;" edge="1" parent="WIyWlLk6GJQsqaUBKTNV-1" source="EzpZir944E85K8thCq4u-39" target="EzpZir944E85K8thCq4u-50">
          <mxGeometry width="50" height="50" relative="1" as="geometry">
            <mxPoint x="1395" y="680" as="sourcePoint" />
            <mxPoint x="1395" y="630" as="targetPoint" />
          </mxGeometry>
        </mxCell>
        <mxCell id="EzpZir944E85K8thCq4u-52" value="&amp;lt;&amp;lt;Extends&amp;gt;&amp;gt;" style="edgeLabel;html=1;align=center;verticalAlign=middle;resizable=0;points=[];" vertex="1" connectable="0" parent="EzpZir944E85K8thCq4u-51">
          <mxGeometry x="0.1275" relative="1" as="geometry">
            <mxPoint as="offset" />
          </mxGeometry>
        </mxCell>
        <mxCell id="EzpZir944E85K8thCq4u-53" value="&lt;font style=&quot;font-size: 15px;&quot;&gt;&lt;b&gt;Contact support&lt;/b&gt;&lt;/font&gt;" style="ellipse;whiteSpace=wrap;html=1;fillColor=default;" vertex="1" parent="WIyWlLk6GJQsqaUBKTNV-1">
          <mxGeometry x="1340" y="1000" width="130" height="50" as="geometry" />
        </mxCell>
        <mxCell id="EzpZir944E85K8thCq4u-54" value="" style="endArrow=none;html=1;rounded=0;entryX=0;entryY=0.5;entryDx=0;entryDy=0;exitX=0.5;exitY=0.5;exitDx=0;exitDy=0;exitPerimeter=0;" edge="1" parent="WIyWlLk6GJQsqaUBKTNV-1" source="EzpZir944E85K8thCq4u-6" target="EzpZir944E85K8thCq4u-53">
          <mxGeometry width="50" height="50" relative="1" as="geometry">
            <mxPoint x="775" y="888" as="sourcePoint" />
            <mxPoint x="1170" y="995" as="targetPoint" />
          </mxGeometry>
        </mxCell>
        <mxCell id="EzpZir944E85K8thCq4u-55" value="" style="endArrow=none;html=1;rounded=0;entryX=0.5;entryY=0.5;entryDx=0;entryDy=0;exitX=1;exitY=0;exitDx=0;exitDy=0;entryPerimeter=0;" edge="1" parent="WIyWlLk6GJQsqaUBKTNV-1" source="EzpZir944E85K8thCq4u-53" target="EzpZir944E85K8thCq4u-7">
          <mxGeometry width="50" height="50" relative="1" as="geometry">
            <mxPoint x="775" y="888" as="sourcePoint" />
            <mxPoint x="1450" y="1125" as="targetPoint" />
          </mxGeometry>
        </mxCell>
        <mxCell id="EzpZir944E85K8thCq4u-56" value="" style="endArrow=none;html=1;rounded=0;entryX=0.5;entryY=0.5;entryDx=0;entryDy=0;exitX=1;exitY=0.5;exitDx=0;exitDy=0;entryPerimeter=0;" edge="1" parent="WIyWlLk6GJQsqaUBKTNV-1" source="EzpZir944E85K8thCq4u-53" target="EzpZir944E85K8thCq4u-10">
          <mxGeometry width="50" height="50" relative="1" as="geometry">
            <mxPoint x="1562" y="1108" as="sourcePoint" />
            <mxPoint x="1975" y="745" as="targetPoint" />
          </mxGeometry>
        </mxCell>
        <mxCell id="EzpZir944E85K8thCq4u-57" value="&lt;font style=&quot;font-size: 15px;&quot;&gt;&lt;b&gt;manage Courses&lt;/b&gt;&lt;/font&gt;" style="ellipse;whiteSpace=wrap;html=1;fillColor=default;" vertex="1" parent="WIyWlLk6GJQsqaUBKTNV-1">
          <mxGeometry x="1680" y="480" width="130" height="50" as="geometry" />
        </mxCell>
        <mxCell id="EzpZir944E85K8thCq4u-58" value="" style="endArrow=none;html=1;rounded=0;exitX=0.5;exitY=0.5;exitDx=0;exitDy=0;exitPerimeter=0;entryX=1;entryY=1;entryDx=0;entryDy=0;" edge="1" parent="WIyWlLk6GJQsqaUBKTNV-1" source="EzpZir944E85K8thCq4u-7" target="EzpZir944E85K8thCq4u-57">
          <mxGeometry width="50" height="50" relative="1" as="geometry">
            <mxPoint x="775" y="888" as="sourcePoint" />
            <mxPoint x="1139" y="693" as="targetPoint" />
          </mxGeometry>
        </mxCell>
        <mxCell id="EzpZir944E85K8thCq4u-59" value="&lt;font style=&quot;&quot;&gt;&lt;span style=&quot;font-size: 15px;&quot;&gt;&lt;b&gt;Delete&amp;nbsp;&lt;/b&gt;&lt;/span&gt;&lt;b style=&quot;font-size: 15px;&quot;&gt;Courses&lt;/b&gt;&lt;/font&gt;" style="ellipse;whiteSpace=wrap;html=1;fillColor=default;" vertex="1" parent="WIyWlLk6GJQsqaUBKTNV-1">
          <mxGeometry x="1770" y="380" width="130" height="50" as="geometry" />
        </mxCell>
        <mxCell id="EzpZir944E85K8thCq4u-60" value="&lt;font style=&quot;font-size: 15px;&quot;&gt;&lt;b&gt;Add Courses&lt;/b&gt;&lt;/font&gt;" style="ellipse;whiteSpace=wrap;html=1;fillColor=default;" vertex="1" parent="WIyWlLk6GJQsqaUBKTNV-1">
          <mxGeometry x="1550" y="370" width="130" height="50" as="geometry" />
        </mxCell>
        <mxCell id="EzpZir944E85K8thCq4u-61" value="" style="endArrow=none;dashed=1;html=1;rounded=0;entryX=1;entryY=1;entryDx=0;entryDy=0;exitX=0;exitY=0;exitDx=0;exitDy=0;startArrow=open;startFill=0;strokeWidth=2;" edge="1" parent="WIyWlLk6GJQsqaUBKTNV-1" source="EzpZir944E85K8thCq4u-57" target="EzpZir944E85K8thCq4u-60">
          <mxGeometry width="50" height="50" relative="1" as="geometry">
            <mxPoint x="1441" y="687" as="sourcePoint" />
            <mxPoint x="1509" y="643" as="targetPoint" />
          </mxGeometry>
        </mxCell>
        <mxCell id="EzpZir944E85K8thCq4u-62" value="&amp;lt;&amp;lt;Extends&amp;gt;&amp;gt;" style="edgeLabel;html=1;align=center;verticalAlign=middle;resizable=0;points=[];" vertex="1" connectable="0" parent="EzpZir944E85K8thCq4u-61">
          <mxGeometry x="0.1275" relative="1" as="geometry">
            <mxPoint as="offset" />
          </mxGeometry>
        </mxCell>
        <mxCell id="EzpZir944E85K8thCq4u-63" value="" style="endArrow=none;dashed=1;html=1;rounded=0;entryX=0.5;entryY=1;entryDx=0;entryDy=0;exitX=0.5;exitY=0;exitDx=0;exitDy=0;startArrow=open;startFill=0;strokeWidth=2;" edge="1" parent="WIyWlLk6GJQsqaUBKTNV-1" source="EzpZir944E85K8thCq4u-57" target="EzpZir944E85K8thCq4u-59">
          <mxGeometry width="50" height="50" relative="1" as="geometry">
            <mxPoint x="1690" y="625" as="sourcePoint" />
            <mxPoint x="1651" y="563" as="targetPoint" />
          </mxGeometry>
        </mxCell>
        <mxCell id="EzpZir944E85K8thCq4u-64" value="&amp;lt;&amp;lt;Extends&amp;gt;&amp;gt;" style="edgeLabel;html=1;align=center;verticalAlign=middle;resizable=0;points=[];" vertex="1" connectable="0" parent="EzpZir944E85K8thCq4u-63">
          <mxGeometry x="0.1275" relative="1" as="geometry">
            <mxPoint as="offset" />
          </mxGeometry>
        </mxCell>
        <mxCell id="EzpZir944E85K8thCq4u-65" value="&lt;font style=&quot;&quot;&gt;&lt;span style=&quot;font-size: 15px;&quot;&gt;&lt;b&gt;Update&amp;nbsp;&lt;/b&gt;&lt;/span&gt;&lt;b style=&quot;font-size: 15px;&quot;&gt;Courses&lt;/b&gt;&lt;/font&gt;" style="ellipse;whiteSpace=wrap;html=1;fillColor=default;" vertex="1" parent="WIyWlLk6GJQsqaUBKTNV-1">
          <mxGeometry x="1550" y="590" width="130" height="50" as="geometry" />
        </mxCell>
        <mxCell id="EzpZir944E85K8thCq4u-66" value="" style="endArrow=none;dashed=1;html=1;rounded=0;entryX=1;entryY=0;entryDx=0;entryDy=0;exitX=0;exitY=1;exitDx=0;exitDy=0;startArrow=open;startFill=0;strokeWidth=2;" edge="1" parent="WIyWlLk6GJQsqaUBKTNV-1" source="EzpZir944E85K8thCq4u-57" target="EzpZir944E85K8thCq4u-65">
          <mxGeometry width="50" height="50" relative="1" as="geometry">
            <mxPoint x="1755" y="600" as="sourcePoint" />
            <mxPoint x="1745" y="530" as="targetPoint" />
          </mxGeometry>
        </mxCell>
        <mxCell id="EzpZir944E85K8thCq4u-67" value="&amp;lt;&amp;lt;Extends&amp;gt;&amp;gt;" style="edgeLabel;html=1;align=center;verticalAlign=middle;resizable=0;points=[];" vertex="1" connectable="0" parent="EzpZir944E85K8thCq4u-66">
          <mxGeometry x="0.1275" relative="1" as="geometry">
            <mxPoint x="2" y="-1" as="offset" />
          </mxGeometry>
        </mxCell>
        <mxCell id="EzpZir944E85K8thCq4u-68" value="&lt;font style=&quot;font-size: 15px;&quot;&gt;&lt;b&gt;view Grades&lt;/b&gt;&lt;/font&gt;" style="ellipse;whiteSpace=wrap;html=1;fillColor=default;" vertex="1" parent="WIyWlLk6GJQsqaUBKTNV-1">
          <mxGeometry x="910" y="1010" width="130" height="50" as="geometry" />
        </mxCell>
        <mxCell id="EzpZir944E85K8thCq4u-69" value="&lt;font style=&quot;font-size: 15px;&quot;&gt;&lt;b&gt;view Feedback&lt;/b&gt;&lt;/font&gt;" style="ellipse;whiteSpace=wrap;html=1;fillColor=default;" vertex="1" parent="WIyWlLk6GJQsqaUBKTNV-1">
          <mxGeometry x="1120" y="1040" width="130" height="50" as="geometry" />
        </mxCell>
        <mxCell id="EzpZir944E85K8thCq4u-70" value="" style="endArrow=none;html=1;rounded=0;entryX=0;entryY=0;entryDx=0;entryDy=0;exitX=0.5;exitY=0.5;exitDx=0;exitDy=0;exitPerimeter=0;" edge="1" parent="WIyWlLk6GJQsqaUBKTNV-1" source="EzpZir944E85K8thCq4u-6" target="EzpZir944E85K8thCq4u-76">
          <mxGeometry width="50" height="50" relative="1" as="geometry">
            <mxPoint x="775" y="888" as="sourcePoint" />
            <mxPoint x="1450" y="1125" as="targetPoint" />
          </mxGeometry>
        </mxCell>
        <mxCell id="EzpZir944E85K8thCq4u-71" value="" style="endArrow=none;html=1;rounded=0;entryX=0;entryY=0;entryDx=0;entryDy=0;exitX=0.5;exitY=0.5;exitDx=0;exitDy=0;exitPerimeter=0;" edge="1" parent="WIyWlLk6GJQsqaUBKTNV-1" source="EzpZir944E85K8thCq4u-6" target="EzpZir944E85K8thCq4u-69">
          <mxGeometry width="50" height="50" relative="1" as="geometry">
            <mxPoint x="775" y="888" as="sourcePoint" />
            <mxPoint x="1319" y="1127" as="targetPoint" />
          </mxGeometry>
        </mxCell>
        <mxCell id="EzpZir944E85K8thCq4u-72" value="&lt;span style=&quot;font-size: 15px;&quot;&gt;&lt;b&gt;Upload Code&lt;/b&gt;&lt;/span&gt;" style="ellipse;whiteSpace=wrap;html=1;fillColor=default;" vertex="1" parent="WIyWlLk6GJQsqaUBKTNV-1">
          <mxGeometry x="1060" y="380" width="130" height="50" as="geometry" />
        </mxCell>
        <mxCell id="EzpZir944E85K8thCq4u-73" value="" style="endArrow=none;html=1;rounded=0;entryX=0;entryY=0.5;entryDx=0;entryDy=0;exitX=0.5;exitY=0.5;exitDx=0;exitDy=0;exitPerimeter=0;" edge="1" parent="WIyWlLk6GJQsqaUBKTNV-1" source="EzpZir944E85K8thCq4u-5" target="EzpZir944E85K8thCq4u-72">
          <mxGeometry width="50" height="50" relative="1" as="geometry">
            <mxPoint x="1370" y="1100" as="sourcePoint" />
            <mxPoint x="1420" y="1050" as="targetPoint" />
          </mxGeometry>
        </mxCell>
        <mxCell id="EzpZir944E85K8thCq4u-76" value="&lt;font style=&quot;font-size: 15px;&quot;&gt;&lt;b&gt;manage messages&lt;/b&gt;&lt;/font&gt;" style="ellipse;whiteSpace=wrap;html=1;fillColor=default;" vertex="1" parent="WIyWlLk6GJQsqaUBKTNV-1">
          <mxGeometry x="1270" y="1050" width="130" height="50" as="geometry" />
        </mxCell>
        <mxCell id="EzpZir944E85K8thCq4u-77" value="&lt;font style=&quot;font-size: 15px;&quot;&gt;&lt;b&gt;send messages&lt;/b&gt;&lt;/font&gt;" style="ellipse;whiteSpace=wrap;html=1;fillColor=default;" vertex="1" parent="WIyWlLk6GJQsqaUBKTNV-1">
          <mxGeometry x="1410" y="1120" width="130" height="50" as="geometry" />
        </mxCell>
        <mxCell id="EzpZir944E85K8thCq4u-78" value="&lt;font style=&quot;font-size: 15px;&quot;&gt;&lt;b&gt;view messages&lt;/b&gt;&lt;/font&gt;" style="ellipse;whiteSpace=wrap;html=1;fillColor=default;" vertex="1" parent="WIyWlLk6GJQsqaUBKTNV-1">
          <mxGeometry x="1500" y="1065" width="130" height="50" as="geometry" />
        </mxCell>
        <mxCell id="EzpZir944E85K8thCq4u-79" value="" style="endArrow=none;dashed=1;html=1;rounded=0;entryX=0;entryY=0.5;entryDx=0;entryDy=0;exitX=1;exitY=0.5;exitDx=0;exitDy=0;startArrow=open;startFill=0;strokeWidth=2;" edge="1" parent="WIyWlLk6GJQsqaUBKTNV-1" source="EzpZir944E85K8thCq4u-76" target="EzpZir944E85K8thCq4u-78">
          <mxGeometry width="50" height="50" relative="1" as="geometry">
            <mxPoint x="1301" y="867" as="sourcePoint" />
            <mxPoint x="1330" y="810" as="targetPoint" />
          </mxGeometry>
        </mxCell>
        <mxCell id="EzpZir944E85K8thCq4u-80" value="&amp;lt;&amp;lt;Extends&amp;gt;&amp;gt;" style="edgeLabel;html=1;align=center;verticalAlign=middle;resizable=0;points=[];" vertex="1" connectable="0" parent="EzpZir944E85K8thCq4u-79">
          <mxGeometry x="0.1275" relative="1" as="geometry">
            <mxPoint as="offset" />
          </mxGeometry>
        </mxCell>
        <mxCell id="EzpZir944E85K8thCq4u-81" value="" style="endArrow=none;dashed=1;html=1;rounded=0;entryX=0;entryY=0.5;entryDx=0;entryDy=0;exitX=0.5;exitY=1;exitDx=0;exitDy=0;startArrow=open;startFill=0;strokeWidth=2;" edge="1" parent="WIyWlLk6GJQsqaUBKTNV-1" source="EzpZir944E85K8thCq4u-76" target="EzpZir944E85K8thCq4u-77">
          <mxGeometry width="50" height="50" relative="1" as="geometry">
            <mxPoint x="1410" y="1085" as="sourcePoint" />
            <mxPoint x="1499" y="1107" as="targetPoint" />
          </mxGeometry>
        </mxCell>
        <mxCell id="EzpZir944E85K8thCq4u-82" value="&amp;lt;&amp;lt;Extends&amp;gt;&amp;gt;" style="edgeLabel;html=1;align=center;verticalAlign=middle;resizable=0;points=[];" vertex="1" connectable="0" parent="EzpZir944E85K8thCq4u-81">
          <mxGeometry x="0.1275" relative="1" as="geometry">
            <mxPoint as="offset" />
          </mxGeometry>
        </mxCell>
        <mxCell id="EzpZir944E85K8thCq4u-84" value="" style="endArrow=none;html=1;rounded=0;entryX=0;entryY=0;entryDx=0;entryDy=0;exitX=0.5;exitY=0.5;exitDx=0;exitDy=0;exitPerimeter=0;" edge="1" parent="WIyWlLk6GJQsqaUBKTNV-1" source="EzpZir944E85K8thCq4u-6" target="EzpZir944E85K8thCq4u-68">
          <mxGeometry width="50" height="50" relative="1" as="geometry">
            <mxPoint x="625" y="833" as="sourcePoint" />
            <mxPoint x="1148" y="1058" as="targetPoint" />
          </mxGeometry>
        </mxCell>
        <mxCell id="EzpZir944E85K8thCq4u-85" value="&lt;font style=&quot;font-size: 15px;&quot;&gt;&lt;b&gt;View Tasks&lt;/b&gt;&lt;/font&gt;" style="ellipse;whiteSpace=wrap;html=1;fillColor=default;" vertex="1" parent="WIyWlLk6GJQsqaUBKTNV-1">
          <mxGeometry x="870" y="590" width="130" height="50" as="geometry" />
        </mxCell>
        <mxCell id="EzpZir944E85K8thCq4u-86" value="" style="endArrow=none;html=1;rounded=0;exitX=0.5;exitY=0.5;exitDx=0;exitDy=0;exitPerimeter=0;entryX=0;entryY=1;entryDx=0;entryDy=0;" edge="1" parent="WIyWlLk6GJQsqaUBKTNV-1" source="EzpZir944E85K8thCq4u-6" target="EzpZir944E85K8thCq4u-85">
          <mxGeometry width="50" height="50" relative="1" as="geometry">
            <mxPoint x="625" y="833" as="sourcePoint" />
            <mxPoint x="1188" y="722" as="targetPoint" />
          </mxGeometry>
        </mxCell>
        <mxCell id="EzpZir944E85K8thCq4u-87" value="&lt;font style=&quot;font-size: 15px;&quot;&gt;&lt;b&gt;View Recent Tasks&lt;/b&gt;&lt;/font&gt;" style="ellipse;whiteSpace=wrap;html=1;fillColor=default;" vertex="1" parent="WIyWlLk6GJQsqaUBKTNV-1">
          <mxGeometry x="840" y="500" width="130" height="50" as="geometry" />
        </mxCell>
        <mxCell id="EzpZir944E85K8thCq4u-88" value="&lt;font style=&quot;font-size: 15px;&quot;&gt;&lt;b&gt;View missed Tasks&lt;/b&gt;&lt;/font&gt;" style="ellipse;whiteSpace=wrap;html=1;fillColor=default;" vertex="1" parent="WIyWlLk6GJQsqaUBKTNV-1">
          <mxGeometry x="1000" y="510" width="130" height="50" as="geometry" />
        </mxCell>
        <mxCell id="EzpZir944E85K8thCq4u-89" value="&lt;font style=&quot;&quot;&gt;&lt;b style=&quot;font-size: 15px;&quot;&gt;View&lt;/b&gt;&lt;/font&gt;&lt;div&gt;&lt;font style=&quot;&quot;&gt;&lt;span style=&quot;font-size: 15px;&quot;&gt;&lt;b&gt;completed&amp;nbsp;&lt;/b&gt;&lt;/span&gt;&lt;b style=&quot;font-size: 15px;&quot;&gt;Tasks&lt;/b&gt;&lt;/font&gt;&lt;/div&gt;" style="ellipse;whiteSpace=wrap;html=1;fillColor=default;" vertex="1" parent="WIyWlLk6GJQsqaUBKTNV-1">
          <mxGeometry x="680" y="560" width="130" height="50" as="geometry" />
        </mxCell>
        <mxCell id="EzpZir944E85K8thCq4u-90" value="" style="endArrow=none;dashed=1;html=1;rounded=0;entryX=0;entryY=1;entryDx=0;entryDy=0;exitX=1;exitY=0;exitDx=0;exitDy=0;startArrow=open;startFill=0;strokeWidth=2;" edge="1" parent="WIyWlLk6GJQsqaUBKTNV-1" source="EzpZir944E85K8thCq4u-85" target="EzpZir944E85K8thCq4u-88">
          <mxGeometry width="50" height="50" relative="1" as="geometry">
            <mxPoint x="1309" y="617" as="sourcePoint" />
            <mxPoint x="1265" y="560" as="targetPoint" />
          </mxGeometry>
        </mxCell>
        <mxCell id="EzpZir944E85K8thCq4u-91" value="&amp;lt;&amp;lt;Extends&amp;gt;&amp;gt;" style="edgeLabel;html=1;align=center;verticalAlign=middle;resizable=0;points=[];" vertex="1" connectable="0" parent="EzpZir944E85K8thCq4u-90">
          <mxGeometry x="0.1275" relative="1" as="geometry">
            <mxPoint as="offset" />
          </mxGeometry>
        </mxCell>
        <mxCell id="EzpZir944E85K8thCq4u-92" value="" style="endArrow=none;dashed=1;html=1;rounded=0;entryX=0.5;entryY=1;entryDx=0;entryDy=0;exitX=0.5;exitY=0;exitDx=0;exitDy=0;startArrow=open;startFill=0;strokeWidth=2;" edge="1" parent="WIyWlLk6GJQsqaUBKTNV-1" source="EzpZir944E85K8thCq4u-85" target="EzpZir944E85K8thCq4u-87">
          <mxGeometry width="50" height="50" relative="1" as="geometry">
            <mxPoint x="991" y="607" as="sourcePoint" />
            <mxPoint x="1029" y="563" as="targetPoint" />
          </mxGeometry>
        </mxCell>
        <mxCell id="EzpZir944E85K8thCq4u-93" value="&amp;lt;&amp;lt;Extends&amp;gt;&amp;gt;" style="edgeLabel;html=1;align=center;verticalAlign=middle;resizable=0;points=[];" vertex="1" connectable="0" parent="EzpZir944E85K8thCq4u-92">
          <mxGeometry x="0.1275" relative="1" as="geometry">
            <mxPoint as="offset" />
          </mxGeometry>
        </mxCell>
        <mxCell id="EzpZir944E85K8thCq4u-94" value="" style="endArrow=none;dashed=1;html=1;rounded=0;entryX=1;entryY=0.5;entryDx=0;entryDy=0;exitX=0;exitY=0.5;exitDx=0;exitDy=0;startArrow=open;startFill=0;strokeWidth=2;" edge="1" parent="WIyWlLk6GJQsqaUBKTNV-1" source="EzpZir944E85K8thCq4u-85" target="EzpZir944E85K8thCq4u-89">
          <mxGeometry width="50" height="50" relative="1" as="geometry">
            <mxPoint x="945" y="600" as="sourcePoint" />
            <mxPoint x="915" y="560" as="targetPoint" />
          </mxGeometry>
        </mxCell>
        <mxCell id="EzpZir944E85K8thCq4u-95" value="&amp;lt;&amp;lt;Extends&amp;gt;&amp;gt;" style="edgeLabel;html=1;align=center;verticalAlign=middle;resizable=0;points=[];" vertex="1" connectable="0" parent="EzpZir944E85K8thCq4u-94">
          <mxGeometry x="0.1275" relative="1" as="geometry">
            <mxPoint as="offset" />
          </mxGeometry>
        </mxCell>
        <mxCell id="EzpZir944E85K8thCq4u-96" value="&lt;font style=&quot;font-size: 15px;&quot;&gt;&lt;b&gt;manage feedback&lt;/b&gt;&lt;/font&gt;" style="ellipse;whiteSpace=wrap;html=1;fillColor=default;" vertex="1" parent="WIyWlLk6GJQsqaUBKTNV-1">
          <mxGeometry x="1070" y="1170" width="130" height="50" as="geometry" />
        </mxCell>
        <mxCell id="EzpZir944E85K8thCq4u-97" value="&lt;font style=&quot;font-size: 15px;&quot;&gt;&lt;b&gt;delete feedback&lt;/b&gt;&lt;/font&gt;" style="ellipse;whiteSpace=wrap;html=1;fillColor=default;" vertex="1" parent="WIyWlLk6GJQsqaUBKTNV-1">
          <mxGeometry x="1180" y="1240" width="130" height="50" as="geometry" />
        </mxCell>
        <mxCell id="EzpZir944E85K8thCq4u-98" value="&lt;font style=&quot;font-size: 15px;&quot;&gt;&lt;b&gt;add feedback&lt;/b&gt;&lt;/font&gt;" style="ellipse;whiteSpace=wrap;html=1;fillColor=default;" vertex="1" parent="WIyWlLk6GJQsqaUBKTNV-1">
          <mxGeometry x="1300" y="1190" width="130" height="50" as="geometry" />
        </mxCell>
        <mxCell id="EzpZir944E85K8thCq4u-99" value="" style="endArrow=none;dashed=1;html=1;rounded=0;entryX=0;entryY=0.5;entryDx=0;entryDy=0;exitX=1;exitY=0.5;exitDx=0;exitDy=0;startArrow=open;startFill=0;strokeWidth=2;" edge="1" parent="WIyWlLk6GJQsqaUBKTNV-1" source="EzpZir944E85K8thCq4u-96" target="EzpZir944E85K8thCq4u-98">
          <mxGeometry width="50" height="50" relative="1" as="geometry">
            <mxPoint x="1345" y="1110" as="sourcePoint" />
            <mxPoint x="1420" y="1155" as="targetPoint" />
          </mxGeometry>
        </mxCell>
        <mxCell id="EzpZir944E85K8thCq4u-100" value="&amp;lt;&amp;lt;Extends&amp;gt;&amp;gt;" style="edgeLabel;html=1;align=center;verticalAlign=middle;resizable=0;points=[];" vertex="1" connectable="0" parent="EzpZir944E85K8thCq4u-99">
          <mxGeometry x="0.1275" relative="1" as="geometry">
            <mxPoint as="offset" />
          </mxGeometry>
        </mxCell>
        <mxCell id="EzpZir944E85K8thCq4u-101" value="" style="endArrow=none;dashed=1;html=1;rounded=0;entryX=0;entryY=0;entryDx=0;entryDy=0;exitX=0.5;exitY=1;exitDx=0;exitDy=0;startArrow=open;startFill=0;strokeWidth=2;" edge="1" parent="WIyWlLk6GJQsqaUBKTNV-1" source="EzpZir944E85K8thCq4u-96" target="EzpZir944E85K8thCq4u-97">
          <mxGeometry width="50" height="50" relative="1" as="geometry">
            <mxPoint x="1210" y="1205" as="sourcePoint" />
            <mxPoint x="1290" y="1235" as="targetPoint" />
          </mxGeometry>
        </mxCell>
        <mxCell id="EzpZir944E85K8thCq4u-102" value="&amp;lt;&amp;lt;Extends&amp;gt;&amp;gt;" style="edgeLabel;html=1;align=center;verticalAlign=middle;resizable=0;points=[];" vertex="1" connectable="0" parent="EzpZir944E85K8thCq4u-101">
          <mxGeometry x="0.1275" relative="1" as="geometry">
            <mxPoint as="offset" />
          </mxGeometry>
        </mxCell>
        <mxCell id="EzpZir944E85K8thCq4u-103" value="" style="endArrow=none;html=1;rounded=0;entryX=0;entryY=0.5;entryDx=0;entryDy=0;exitX=0.5;exitY=0.5;exitDx=0;exitDy=0;exitPerimeter=0;" edge="1" parent="WIyWlLk6GJQsqaUBKTNV-1" source="EzpZir944E85K8thCq4u-3" target="EzpZir944E85K8thCq4u-96">
          <mxGeometry width="50" height="50" relative="1" as="geometry">
            <mxPoint x="625" y="833" as="sourcePoint" />
            <mxPoint x="988" y="1038" as="targetPoint" />
          </mxGeometry>
        </mxCell>
        <mxCell id="EzpZir944E85K8thCq4u-104" value="" style="endArrow=none;html=1;rounded=0;exitX=1;exitY=0.5;exitDx=0;exitDy=0;entryX=0.5;entryY=0.5;entryDx=0;entryDy=0;entryPerimeter=0;" edge="1" parent="WIyWlLk6GJQsqaUBKTNV-1" source="EzpZir944E85K8thCq4u-98" target="EzpZir944E85K8thCq4u-10">
          <mxGeometry width="50" height="50" relative="1" as="geometry">
            <mxPoint x="1480" y="1035" as="sourcePoint" />
            <mxPoint x="1840" y="1110" as="targetPoint" />
          </mxGeometry>
        </mxCell>
        <mxCell id="EzpZir944E85K8thCq4u-105" value="&lt;font style=&quot;font-size: 15px;&quot;&gt;&lt;b&gt;manage Grades&lt;/b&gt;&lt;/font&gt;" style="ellipse;whiteSpace=wrap;html=1;fillColor=default;" vertex="1" parent="WIyWlLk6GJQsqaUBKTNV-1">
          <mxGeometry x="970" y="1280" width="130" height="50" as="geometry" />
        </mxCell>
        <mxCell id="EzpZir944E85K8thCq4u-107" value="&lt;font style=&quot;font-size: 15px;&quot;&gt;&lt;b&gt;add Grades&lt;/b&gt;&lt;/font&gt;" style="ellipse;whiteSpace=wrap;html=1;fillColor=default;" vertex="1" parent="WIyWlLk6GJQsqaUBKTNV-1">
          <mxGeometry x="1210" y="1300" width="130" height="50" as="geometry" />
        </mxCell>
        <mxCell id="EzpZir944E85K8thCq4u-108" value="&lt;font style=&quot;font-size: 15px;&quot;&gt;&lt;b&gt;update Grades&lt;/b&gt;&lt;/font&gt;" style="ellipse;whiteSpace=wrap;html=1;fillColor=default;" vertex="1" parent="WIyWlLk6GJQsqaUBKTNV-1">
          <mxGeometry x="1180" y="1390" width="130" height="50" as="geometry" />
        </mxCell>
        <mxCell id="EzpZir944E85K8thCq4u-109" value="" style="endArrow=none;dashed=1;html=1;rounded=0;entryX=0;entryY=0.5;entryDx=0;entryDy=0;exitX=1;exitY=0.5;exitDx=0;exitDy=0;startArrow=open;startFill=0;strokeWidth=2;" edge="1" parent="WIyWlLk6GJQsqaUBKTNV-1" source="EzpZir944E85K8thCq4u-105" target="EzpZir944E85K8thCq4u-107">
          <mxGeometry width="50" height="50" relative="1" as="geometry">
            <mxPoint x="1145" y="1230" as="sourcePoint" />
            <mxPoint x="1209" y="1257" as="targetPoint" />
          </mxGeometry>
        </mxCell>
        <mxCell id="EzpZir944E85K8thCq4u-110" value="&amp;lt;&amp;lt;Extends&amp;gt;&amp;gt;" style="edgeLabel;html=1;align=center;verticalAlign=middle;resizable=0;points=[];" vertex="1" connectable="0" parent="EzpZir944E85K8thCq4u-109">
          <mxGeometry x="0.1275" relative="1" as="geometry">
            <mxPoint as="offset" />
          </mxGeometry>
        </mxCell>
        <mxCell id="EzpZir944E85K8thCq4u-111" value="" style="endArrow=none;dashed=1;html=1;rounded=0;entryX=0;entryY=0;entryDx=0;entryDy=0;exitX=1;exitY=1;exitDx=0;exitDy=0;startArrow=open;startFill=0;strokeWidth=2;" edge="1" parent="WIyWlLk6GJQsqaUBKTNV-1" source="EzpZir944E85K8thCq4u-105" target="EzpZir944E85K8thCq4u-108">
          <mxGeometry width="50" height="50" relative="1" as="geometry">
            <mxPoint x="1150" y="1365" as="sourcePoint" />
            <mxPoint x="1220" y="1335" as="targetPoint" />
          </mxGeometry>
        </mxCell>
        <mxCell id="EzpZir944E85K8thCq4u-112" value="&amp;lt;&amp;lt;Extends&amp;gt;&amp;gt;" style="edgeLabel;html=1;align=center;verticalAlign=middle;resizable=0;points=[];" vertex="1" connectable="0" parent="EzpZir944E85K8thCq4u-111">
          <mxGeometry x="0.1275" relative="1" as="geometry">
            <mxPoint as="offset" />
          </mxGeometry>
        </mxCell>
        <mxCell id="EzpZir944E85K8thCq4u-113" value="" style="endArrow=none;html=1;rounded=0;exitX=1;exitY=0.5;exitDx=0;exitDy=0;entryX=0.5;entryY=0.5;entryDx=0;entryDy=0;entryPerimeter=0;" edge="1" parent="WIyWlLk6GJQsqaUBKTNV-1" source="EzpZir944E85K8thCq4u-107" target="EzpZir944E85K8thCq4u-10">
          <mxGeometry width="50" height="50" relative="1" as="geometry">
            <mxPoint x="1440" y="1225" as="sourcePoint" />
            <mxPoint x="1975" y="1105" as="targetPoint" />
          </mxGeometry>
        </mxCell>
        <mxCell id="EzpZir944E85K8thCq4u-114" value="" style="endArrow=none;html=1;rounded=0;entryX=0;entryY=0;entryDx=0;entryDy=0;exitX=0.5;exitY=0.5;exitDx=0;exitDy=0;exitPerimeter=0;" edge="1" parent="WIyWlLk6GJQsqaUBKTNV-1" source="EzpZir944E85K8thCq4u-3" target="EzpZir944E85K8thCq4u-105">
          <mxGeometry width="50" height="50" relative="1" as="geometry">
            <mxPoint x="625" y="1180" as="sourcePoint" />
            <mxPoint x="1080" y="1205" as="targetPoint" />
          </mxGeometry>
        </mxCell>
        <mxCell id="EzpZir944E85K8thCq4u-115" value="&lt;font style=&quot;font-size: 15px;&quot;&gt;&lt;b&gt;manage Tasks&lt;/b&gt;&lt;/font&gt;" style="ellipse;whiteSpace=wrap;html=1;fillColor=default;" vertex="1" parent="WIyWlLk6GJQsqaUBKTNV-1">
          <mxGeometry x="840" y="1340" width="130" height="50" as="geometry" />
        </mxCell>
        <mxCell id="EzpZir944E85K8thCq4u-116" value="" style="endArrow=none;html=1;rounded=0;entryX=0;entryY=0;entryDx=0;entryDy=0;exitX=0.5;exitY=0.5;exitDx=0;exitDy=0;exitPerimeter=0;" edge="1" parent="WIyWlLk6GJQsqaUBKTNV-1" source="EzpZir944E85K8thCq4u-3" target="EzpZir944E85K8thCq4u-115">
          <mxGeometry width="50" height="50" relative="1" as="geometry">
            <mxPoint x="625" y="1180" as="sourcePoint" />
            <mxPoint x="1038" y="1348" as="targetPoint" />
          </mxGeometry>
        </mxCell>
        <mxCell id="EzpZir944E85K8thCq4u-117" value="&lt;font style=&quot;font-size: 15px;&quot;&gt;&lt;b&gt;add Tasks&lt;/b&gt;&lt;/font&gt;" style="ellipse;whiteSpace=wrap;html=1;fillColor=default;" vertex="1" parent="WIyWlLk6GJQsqaUBKTNV-1">
          <mxGeometry x="1060" y="1440" width="130" height="50" as="geometry" />
        </mxCell>
        <mxCell id="EzpZir944E85K8thCq4u-118" value="&lt;font style=&quot;font-size: 15px;&quot;&gt;&lt;b&gt;delete Tasks&lt;/b&gt;&lt;/font&gt;" style="ellipse;whiteSpace=wrap;html=1;fillColor=default;" vertex="1" parent="WIyWlLk6GJQsqaUBKTNV-1">
          <mxGeometry x="780" y="1470" width="130" height="50" as="geometry" />
        </mxCell>
        <mxCell id="EzpZir944E85K8thCq4u-119" value="&lt;font style=&quot;font-size: 15px;&quot;&gt;&lt;b&gt;update Tasks&lt;/b&gt;&lt;/font&gt;" style="ellipse;whiteSpace=wrap;html=1;fillColor=default;" vertex="1" parent="WIyWlLk6GJQsqaUBKTNV-1">
          <mxGeometry x="920" y="1470" width="130" height="50" as="geometry" />
        </mxCell>
        <mxCell id="EzpZir944E85K8thCq4u-120" value="" style="endArrow=none;dashed=1;html=1;rounded=0;entryX=0;entryY=0;entryDx=0;entryDy=0;exitX=1;exitY=1;exitDx=0;exitDy=0;startArrow=open;startFill=0;strokeWidth=2;" edge="1" parent="WIyWlLk6GJQsqaUBKTNV-1" source="EzpZir944E85K8thCq4u-115" target="EzpZir944E85K8thCq4u-117">
          <mxGeometry width="50" height="50" relative="1" as="geometry">
            <mxPoint x="1131" y="1383" as="sourcePoint" />
            <mxPoint x="1209" y="1407" as="targetPoint" />
          </mxGeometry>
        </mxCell>
        <mxCell id="EzpZir944E85K8thCq4u-121" value="&amp;lt;&amp;lt;Extends&amp;gt;&amp;gt;" style="edgeLabel;html=1;align=center;verticalAlign=middle;resizable=0;points=[];" vertex="1" connectable="0" parent="EzpZir944E85K8thCq4u-120">
          <mxGeometry x="0.1275" relative="1" as="geometry">
            <mxPoint as="offset" />
          </mxGeometry>
        </mxCell>
        <mxCell id="EzpZir944E85K8thCq4u-122" value="" style="endArrow=none;dashed=1;html=1;rounded=0;entryX=0.5;entryY=0;entryDx=0;entryDy=0;exitX=0.5;exitY=1;exitDx=0;exitDy=0;startArrow=open;startFill=0;strokeWidth=2;" edge="1" parent="WIyWlLk6GJQsqaUBKTNV-1" source="EzpZir944E85K8thCq4u-115" target="EzpZir944E85K8thCq4u-119">
          <mxGeometry width="50" height="50" relative="1" as="geometry">
            <mxPoint x="961" y="1393" as="sourcePoint" />
            <mxPoint x="1089" y="1457" as="targetPoint" />
          </mxGeometry>
        </mxCell>
        <mxCell id="EzpZir944E85K8thCq4u-123" value="&amp;lt;&amp;lt;Extends&amp;gt;&amp;gt;" style="edgeLabel;html=1;align=center;verticalAlign=middle;resizable=0;points=[];" vertex="1" connectable="0" parent="EzpZir944E85K8thCq4u-122">
          <mxGeometry x="0.1275" relative="1" as="geometry">
            <mxPoint as="offset" />
          </mxGeometry>
        </mxCell>
        <mxCell id="EzpZir944E85K8thCq4u-124" value="" style="endArrow=none;dashed=1;html=1;rounded=0;entryX=0.5;entryY=0;entryDx=0;entryDy=0;exitX=0;exitY=1;exitDx=0;exitDy=0;startArrow=open;startFill=0;strokeWidth=2;" edge="1" parent="WIyWlLk6GJQsqaUBKTNV-1" source="EzpZir944E85K8thCq4u-115" target="EzpZir944E85K8thCq4u-118">
          <mxGeometry width="50" height="50" relative="1" as="geometry">
            <mxPoint x="915" y="1400" as="sourcePoint" />
            <mxPoint x="995" y="1490" as="targetPoint" />
          </mxGeometry>
        </mxCell>
        <mxCell id="EzpZir944E85K8thCq4u-125" value="&amp;lt;&amp;lt;Extends&amp;gt;&amp;gt;" style="edgeLabel;html=1;align=center;verticalAlign=middle;resizable=0;points=[];" vertex="1" connectable="0" parent="EzpZir944E85K8thCq4u-124">
          <mxGeometry x="0.1275" relative="1" as="geometry">
            <mxPoint as="offset" />
          </mxGeometry>
        </mxCell>
        <mxCell id="EzpZir944E85K8thCq4u-126" value="" style="endArrow=none;dashed=1;html=1;rounded=0;entryX=1;entryY=0.5;entryDx=0;entryDy=0;startArrow=open;startFill=0;strokeWidth=2;exitX=0;exitY=0.5;exitDx=0;exitDy=0;" edge="1" parent="WIyWlLk6GJQsqaUBKTNV-1" source="EzpZir944E85K8thCq4u-57" target="EzpZir944E85K8thCq4u-13">
          <mxGeometry width="50" height="50" relative="1" as="geometry">
            <mxPoint x="1610" y="530" as="sourcePoint" />
            <mxPoint x="1672" y="422" as="targetPoint" />
          </mxGeometry>
        </mxCell>
        <mxCell id="EzpZir944E85K8thCq4u-127" value="&amp;lt;&amp;lt;Extends&amp;gt;&amp;gt;" style="edgeLabel;html=1;align=center;verticalAlign=middle;resizable=0;points=[];" vertex="1" connectable="0" parent="EzpZir944E85K8thCq4u-126">
          <mxGeometry x="0.1275" relative="1" as="geometry">
            <mxPoint as="offset" />
          </mxGeometry>
        </mxCell>
        <mxCell id="EzpZir944E85K8thCq4u-129" value="" style="endArrow=classic;html=1;rounded=0;" edge="1" parent="WIyWlLk6GJQsqaUBKTNV-1">
          <mxGeometry width="50" height="50" relative="1" as="geometry">
            <mxPoint x="600" y="580" as="sourcePoint" />
            <mxPoint x="600" y="760" as="targetPoint" />
          </mxGeometry>
        </mxCell>
        <mxCell id="EzpZir944E85K8thCq4u-130" value="" style="endArrow=classic;html=1;rounded=0;" edge="1" parent="WIyWlLk6GJQsqaUBKTNV-1">
          <mxGeometry width="50" height="50" relative="1" as="geometry">
            <mxPoint x="600" y="1110" as="sourcePoint" />
            <mxPoint x="600" y="950" as="targetPoint" />
          </mxGeometry>
        </mxCell>
        <mxCell id="o7aApu3GGf-8eQx43LeY-1" value="&lt;font style=&quot;font-size: 20px;&quot;&gt;&lt;span style=&quot;font-size: 20px;&quot;&gt;Gradepilot System&lt;/span&gt;&lt;/font&gt;" style="text;strokeColor=none;align=center;fillColor=none;html=1;verticalAlign=middle;whiteSpace=wrap;rounded=0;fontSize=20;fontStyle=1" vertex="1" parent="WIyWlLk6GJQsqaUBKTNV-1">
          <mxGeometry x="1310" y="290" width="215" height="30" as="geometry" />
        </mxCell>
        <mxCell id="o7aApu3GGf-8eQx43LeY-2" value="" style="rounded=0;whiteSpace=wrap;html=1;fillColor=none;" vertex="1" parent="WIyWlLk6GJQsqaUBKTNV-1">
          <mxGeometry x="660" y="270" width="1560" height="1270" as="geometry" />
        </mxCell>
      </root>
    </mxGraphModel>
  </diagram>
  <diagram id="kmoHN9F4iCi2Yi1RMuq6" name="Page-2">
    <mxGraphModel dx="2356" dy="1513" grid="1" gridSize="10" guides="1" tooltips="1" connect="1" arrows="1" fold="1" page="1" pageScale="1" pageWidth="291" pageHeight="413" math="0" shadow="0">
      <root>
        <mxCell id="0" />
        <mxCell id="1" parent="0" />
        <mxCell id="0-PR4jEMZpkDc8mjO-xp-109" value="" style="group" vertex="1" connectable="0" parent="1">
          <mxGeometry x="450" y="80" width="1810" height="1450" as="geometry" />
        </mxCell>
        <mxCell id="0-PR4jEMZpkDc8mjO-xp-1" value="&lt;span style=&quot;color: rgb(61, 71, 82); font-size: 20px; text-wrap: wrap;&quot;&gt;Instructor&lt;/span&gt;" style="shape=umlActor;verticalLabelPosition=bottom;verticalAlign=top;html=1;outlineConnect=0;fontSize=20;fontStyle=1" vertex="1" parent="0-PR4jEMZpkDc8mjO-xp-109">
          <mxGeometry y="981.8897637795276" width="61.355932203389834" height="137.00787401574803" as="geometry" />
        </mxCell>
        <mxCell id="0-PR4jEMZpkDc8mjO-xp-2" value="&lt;span style=&quot;color: rgb(61, 71, 82); font-size: 20px; text-wrap: wrap;&quot;&gt;Student&lt;/span&gt;" style="shape=umlActor;verticalLabelPosition=bottom;verticalAlign=top;html=1;outlineConnect=0;fontSize=20;fontStyle=1" vertex="1" parent="0-PR4jEMZpkDc8mjO-xp-109">
          <mxGeometry x="1.0225988700564972" y="171.25984251968504" width="61.355932203389834" height="137.00787401574803" as="geometry" />
        </mxCell>
        <mxCell id="0-PR4jEMZpkDc8mjO-xp-3" value="&lt;span style=&quot;color: rgb(61, 71, 82); font-size: 20px; text-wrap: wrap;&quot;&gt;User&lt;/span&gt;" style="shape=umlActor;verticalLabelPosition=bottom;verticalAlign=top;html=1;outlineConnect=0;fontSize=20;fontStyle=1" vertex="1" parent="0-PR4jEMZpkDc8mjO-xp-109">
          <mxGeometry x="1.0225988700564972" y="585.7086614173228" width="61.355932203389834" height="137.00787401574803" as="geometry" />
        </mxCell>
        <mxCell id="0-PR4jEMZpkDc8mjO-xp-4" value="&lt;span style=&quot;color: rgb(61, 71, 82); font-size: 20px; text-wrap: wrap;&quot;&gt;Admin&lt;/span&gt;" style="shape=umlActor;verticalLabelPosition=bottom;verticalAlign=top;html=1;outlineConnect=0;strokeWidth=2;fontSize=20;fontStyle=1" vertex="1" parent="0-PR4jEMZpkDc8mjO-xp-109">
          <mxGeometry x="1748.6440677966102" y="513.779527559055" width="61.355932203389834" height="137.00787401574803" as="geometry" />
        </mxCell>
        <mxCell id="0-PR4jEMZpkDc8mjO-xp-5" value="&lt;span style=&quot;color: rgb(61, 71, 82); font-size: 20px; text-wrap: wrap;&quot;&gt;AI&lt;/span&gt;" style="shape=umlActor;verticalLabelPosition=bottom;verticalAlign=top;html=1;outlineConnect=0;strokeWidth=2;fontSize=20;fontStyle=1" vertex="1" parent="0-PR4jEMZpkDc8mjO-xp-109">
          <mxGeometry x="1748.6440677966102" y="924.8031496062993" width="61.355932203389834" height="137.00787401574803" as="geometry" />
        </mxCell>
        <mxCell id="0-PR4jEMZpkDc8mjO-xp-6" value="" style="endArrow=none;html=1;rounded=0;exitX=0.5;exitY=0.5;exitDx=0;exitDy=0;exitPerimeter=0;entryX=0;entryY=1;entryDx=0;entryDy=0;" edge="1" parent="0-PR4jEMZpkDc8mjO-xp-109" source="0-PR4jEMZpkDc8mjO-xp-3" target="0-PR4jEMZpkDc8mjO-xp-7">
          <mxGeometry width="50" height="50" relative="1" as="geometry">
            <mxPoint x="613.5593220338983" y="605.1181102362204" as="sourcePoint" />
            <mxPoint x="664.6892655367232" y="548.0314960629921" as="targetPoint" />
          </mxGeometry>
        </mxCell>
        <mxCell id="0-PR4jEMZpkDc8mjO-xp-7" value="&lt;font style=&quot;font-size: 15px;&quot;&gt;&lt;b&gt;View Courses&lt;/b&gt;&lt;/font&gt;" style="ellipse;whiteSpace=wrap;html=1;fillColor=default;" vertex="1" parent="0-PR4jEMZpkDc8mjO-xp-109">
          <mxGeometry x="818.0790960451977" y="216.9291338582677" width="132.93785310734464" height="57.08661417322835" as="geometry" />
        </mxCell>
        <mxCell id="0-PR4jEMZpkDc8mjO-xp-8" value="&lt;font style=&quot;font-size: 15px;&quot;&gt;&lt;b&gt;Login&lt;/b&gt;&lt;/font&gt;" style="ellipse;whiteSpace=wrap;html=1;fillColor=default;" vertex="1" parent="0-PR4jEMZpkDc8mjO-xp-109">
          <mxGeometry x="623.7853107344633" y="662.2047244094489" width="132.93785310734464" height="57.08661417322835" as="geometry" />
        </mxCell>
        <mxCell id="0-PR4jEMZpkDc8mjO-xp-9" value="&lt;font style=&quot;font-size: 15px;&quot;&gt;&lt;b&gt;Forgot password&lt;/b&gt;&lt;/font&gt;" style="ellipse;whiteSpace=wrap;html=1;fillColor=default;" vertex="1" parent="0-PR4jEMZpkDc8mjO-xp-109">
          <mxGeometry x="700.4802259887006" y="548.0314960629921" width="132.93785310734464" height="57.08661417322835" as="geometry" />
        </mxCell>
        <mxCell id="0-PR4jEMZpkDc8mjO-xp-10" value="&lt;font size=&quot;1&quot; style=&quot;&quot;&gt;&lt;b style=&quot;font-size: 14px;&quot;&gt;Authenticate User&lt;/b&gt;&lt;/font&gt;" style="ellipse;whiteSpace=wrap;html=1;fillColor=default;" vertex="1" parent="0-PR4jEMZpkDc8mjO-xp-109">
          <mxGeometry x="899.8870056497175" y="685.0393700787401" width="132.93785310734464" height="57.08661417322835" as="geometry" />
        </mxCell>
        <mxCell id="0-PR4jEMZpkDc8mjO-xp-11" value="" style="endArrow=none;html=1;rounded=0;entryX=0;entryY=0.5;entryDx=0;entryDy=0;exitX=0.5;exitY=0.5;exitDx=0;exitDy=0;exitPerimeter=0;" edge="1" parent="0-PR4jEMZpkDc8mjO-xp-109" source="0-PR4jEMZpkDc8mjO-xp-3" target="0-PR4jEMZpkDc8mjO-xp-8">
          <mxGeometry width="50" height="50" relative="1" as="geometry">
            <mxPoint x="200.42937853107344" y="694.1732283464567" as="sourcePoint" />
            <mxPoint x="461.19209039548025" y="679.3307086614174" as="targetPoint" />
          </mxGeometry>
        </mxCell>
        <mxCell id="0-PR4jEMZpkDc8mjO-xp-12" value="" style="endArrow=none;dashed=1;html=1;rounded=0;entryX=0.5;entryY=1;entryDx=0;entryDy=0;exitX=1;exitY=0;exitDx=0;exitDy=0;startArrow=open;startFill=0;strokeWidth=2;" edge="1" parent="0-PR4jEMZpkDc8mjO-xp-109" source="0-PR4jEMZpkDc8mjO-xp-8" target="0-PR4jEMZpkDc8mjO-xp-9">
          <mxGeometry width="50" height="50" relative="1" as="geometry">
            <mxPoint x="828.3050847457628" y="742.1259842519685" as="sourcePoint" />
            <mxPoint x="879.4350282485876" y="685.0393700787401" as="targetPoint" />
          </mxGeometry>
        </mxCell>
        <mxCell id="0-PR4jEMZpkDc8mjO-xp-13" value="&amp;lt;&amp;lt;Extends&amp;gt;&amp;gt;" style="edgeLabel;html=1;align=center;verticalAlign=middle;resizable=0;points=[];" vertex="1" connectable="0" parent="0-PR4jEMZpkDc8mjO-xp-12">
          <mxGeometry x="0.1275" relative="1" as="geometry">
            <mxPoint as="offset" />
          </mxGeometry>
        </mxCell>
        <mxCell id="0-PR4jEMZpkDc8mjO-xp-14" value="" style="endArrow=open;dashed=1;html=1;rounded=0;entryX=0;entryY=0.5;entryDx=0;entryDy=0;exitX=1;exitY=1;exitDx=0;exitDy=0;strokeWidth=2;endFill=0;" edge="1" parent="0-PR4jEMZpkDc8mjO-xp-109" source="0-PR4jEMZpkDc8mjO-xp-8" target="0-PR4jEMZpkDc8mjO-xp-10">
          <mxGeometry width="50" height="50" relative="1" as="geometry">
            <mxPoint x="797.6271186440678" y="730.7086614173228" as="sourcePoint" />
            <mxPoint x="848.7570621468926" y="673.6220472440945" as="targetPoint" />
          </mxGeometry>
        </mxCell>
        <mxCell id="0-PR4jEMZpkDc8mjO-xp-15" value="&amp;lt;&amp;lt;Include&amp;gt;&amp;gt;" style="edgeLabel;html=1;align=center;verticalAlign=middle;resizable=0;points=[];" vertex="1" connectable="0" parent="0-PR4jEMZpkDc8mjO-xp-14">
          <mxGeometry x="-0.1541" relative="1" as="geometry">
            <mxPoint as="offset" />
          </mxGeometry>
        </mxCell>
        <mxCell id="0-PR4jEMZpkDc8mjO-xp-16" value="" style="endArrow=none;html=1;rounded=0;entryX=1;entryY=0.5;entryDx=0;entryDy=0;exitX=0.5;exitY=0.5;exitDx=0;exitDy=0;exitPerimeter=0;" edge="1" parent="0-PR4jEMZpkDc8mjO-xp-109" source="0-PR4jEMZpkDc8mjO-xp-4" target="0-PR4jEMZpkDc8mjO-xp-8">
          <mxGeometry width="50" height="50" relative="1" as="geometry">
            <mxPoint x="210.65536723163842" y="705.5905511811023" as="sourcePoint" />
            <mxPoint x="471.4180790960452" y="690.748031496063" as="targetPoint" />
          </mxGeometry>
        </mxCell>
        <mxCell id="0-PR4jEMZpkDc8mjO-xp-17" value="&lt;font style=&quot;font-size: 15px;&quot;&gt;&lt;b&gt;Register&lt;/b&gt;&lt;/font&gt;" style="ellipse;whiteSpace=wrap;html=1;fillColor=default;" vertex="1" parent="0-PR4jEMZpkDc8mjO-xp-109">
          <mxGeometry x="572.6553672316385" y="730.7086614173228" width="132.93785310734464" height="57.08661417322835" as="geometry" />
        </mxCell>
        <mxCell id="0-PR4jEMZpkDc8mjO-xp-18" value="" style="endArrow=none;html=1;rounded=0;entryX=0;entryY=0.5;entryDx=0;entryDy=0;exitX=0.5;exitY=0.5;exitDx=0;exitDy=0;exitPerimeter=0;" edge="1" parent="0-PR4jEMZpkDc8mjO-xp-109" source="0-PR4jEMZpkDc8mjO-xp-3" target="0-PR4jEMZpkDc8mjO-xp-17">
          <mxGeometry width="50" height="50" relative="1" as="geometry">
            <mxPoint x="210.65536723163842" y="705.5905511811023" as="sourcePoint" />
            <mxPoint x="471.4180790960452" y="690.748031496063" as="targetPoint" />
          </mxGeometry>
        </mxCell>
        <mxCell id="0-PR4jEMZpkDc8mjO-xp-19" value="&lt;font style=&quot;font-size: 15px;&quot;&gt;&lt;b&gt;validate Information&lt;/b&gt;&lt;/font&gt;" style="ellipse;whiteSpace=wrap;html=1;fillColor=default;" vertex="1" parent="0-PR4jEMZpkDc8mjO-xp-109">
          <mxGeometry x="807.8531073446328" y="753.5433070866142" width="132.93785310734464" height="57.08661417322835" as="geometry" />
        </mxCell>
        <mxCell id="0-PR4jEMZpkDc8mjO-xp-20" value="" style="endArrow=open;dashed=1;html=1;rounded=0;entryX=0;entryY=0.5;entryDx=0;entryDy=0;exitX=1;exitY=0.5;exitDx=0;exitDy=0;strokeWidth=2;endFill=0;" edge="1" parent="0-PR4jEMZpkDc8mjO-xp-109" source="0-PR4jEMZpkDc8mjO-xp-17" target="0-PR4jEMZpkDc8mjO-xp-19">
          <mxGeometry width="50" height="50" relative="1" as="geometry">
            <mxPoint x="747.5197740112994" y="722.7165354330708" as="sourcePoint" />
            <mxPoint x="828.3050847457628" y="759.251968503937" as="targetPoint" />
          </mxGeometry>
        </mxCell>
        <mxCell id="0-PR4jEMZpkDc8mjO-xp-21" value="&amp;lt;&amp;lt;Include&amp;gt;&amp;gt;" style="edgeLabel;html=1;align=center;verticalAlign=middle;resizable=0;points=[];" vertex="1" connectable="0" parent="0-PR4jEMZpkDc8mjO-xp-20">
          <mxGeometry x="-0.1541" relative="1" as="geometry">
            <mxPoint x="3" y="-3" as="offset" />
          </mxGeometry>
        </mxCell>
        <mxCell id="0-PR4jEMZpkDc8mjO-xp-22" value="&lt;font style=&quot;font-size: 15px;&quot;&gt;&lt;b&gt;manage account&lt;/b&gt;&lt;/font&gt;" style="ellipse;whiteSpace=wrap;html=1;fillColor=default;" vertex="1" parent="0-PR4jEMZpkDc8mjO-xp-109">
          <mxGeometry x="777.1751412429379" y="468.1102362204725" width="132.93785310734464" height="57.08661417322835" as="geometry" />
        </mxCell>
        <mxCell id="0-PR4jEMZpkDc8mjO-xp-23" value="&lt;font style=&quot;font-size: 15px;&quot;&gt;&lt;b&gt;change profile picture&lt;/b&gt;&lt;/font&gt;" style="ellipse;whiteSpace=wrap;html=1;fillColor=default;" vertex="1" parent="0-PR4jEMZpkDc8mjO-xp-109">
          <mxGeometry x="833.4180790960452" y="353.93700787401576" width="132.93785310734464" height="57.08661417322835" as="geometry" />
        </mxCell>
        <mxCell id="0-PR4jEMZpkDc8mjO-xp-24" value="" style="endArrow=none;dashed=1;html=1;rounded=0;entryX=0.5;entryY=1;entryDx=0;entryDy=0;exitX=1;exitY=0;exitDx=0;exitDy=0;startArrow=open;startFill=0;strokeWidth=2;" edge="1" parent="0-PR4jEMZpkDc8mjO-xp-109" source="0-PR4jEMZpkDc8mjO-xp-22" target="0-PR4jEMZpkDc8mjO-xp-23">
          <mxGeometry width="50" height="50" relative="1" as="geometry">
            <mxPoint x="716.8418079096045" y="681.6141732283464" as="sourcePoint" />
            <mxPoint x="797.6271186440678" y="610.8267716535433" as="targetPoint" />
          </mxGeometry>
        </mxCell>
        <mxCell id="0-PR4jEMZpkDc8mjO-xp-25" value="&amp;lt;&amp;lt;Extends&amp;gt;&amp;gt;" style="edgeLabel;html=1;align=center;verticalAlign=middle;resizable=0;points=[];" vertex="1" connectable="0" parent="0-PR4jEMZpkDc8mjO-xp-24">
          <mxGeometry x="0.1275" relative="1" as="geometry">
            <mxPoint as="offset" />
          </mxGeometry>
        </mxCell>
        <mxCell id="0-PR4jEMZpkDc8mjO-xp-26" value="" style="endArrow=none;html=1;rounded=0;entryX=0;entryY=1;entryDx=0;entryDy=0;exitX=0.5;exitY=0.5;exitDx=0;exitDy=0;exitPerimeter=0;" edge="1" parent="0-PR4jEMZpkDc8mjO-xp-109" source="0-PR4jEMZpkDc8mjO-xp-3" target="0-PR4jEMZpkDc8mjO-xp-22">
          <mxGeometry width="50" height="50" relative="1" as="geometry">
            <mxPoint x="163.61581920903956" y="705.5905511811023" as="sourcePoint" />
            <mxPoint x="572.6553672316385" y="519.488188976378" as="targetPoint" />
          </mxGeometry>
        </mxCell>
        <mxCell id="0-PR4jEMZpkDc8mjO-xp-27" value="" style="endArrow=none;html=1;rounded=0;entryX=1;entryY=0.5;entryDx=0;entryDy=0;exitX=0.5;exitY=0.5;exitDx=0;exitDy=0;exitPerimeter=0;" edge="1" parent="0-PR4jEMZpkDc8mjO-xp-109" source="0-PR4jEMZpkDc8mjO-xp-4" target="0-PR4jEMZpkDc8mjO-xp-22">
          <mxGeometry width="50" height="50" relative="1" as="geometry">
            <mxPoint x="209.63276836158192" y="705.5905511811023" as="sourcePoint" />
            <mxPoint x="796.6045197740114" y="517.2047244094488" as="targetPoint" />
          </mxGeometry>
        </mxCell>
        <mxCell id="0-PR4jEMZpkDc8mjO-xp-28" value="&lt;span style=&quot;font-size: 15px;&quot;&gt;&lt;b&gt;change Language&lt;/b&gt;&lt;/span&gt;" style="ellipse;whiteSpace=wrap;html=1;fillColor=default;" vertex="1" parent="0-PR4jEMZpkDc8mjO-xp-109">
          <mxGeometry x="685.1412429378531" y="353.93700787401576" width="132.93785310734464" height="57.08661417322835" as="geometry" />
        </mxCell>
        <mxCell id="0-PR4jEMZpkDc8mjO-xp-29" value="" style="endArrow=none;dashed=1;html=1;rounded=0;entryX=0.5;entryY=1;entryDx=0;entryDy=0;exitX=0;exitY=0;exitDx=0;exitDy=0;startArrow=open;startFill=0;strokeWidth=2;" edge="1" parent="0-PR4jEMZpkDc8mjO-xp-109" source="0-PR4jEMZpkDc8mjO-xp-22" target="0-PR4jEMZpkDc8mjO-xp-28">
          <mxGeometry width="50" height="50" relative="1" as="geometry">
            <mxPoint x="891.7062146892655" y="477.244094488189" as="sourcePoint" />
            <mxPoint x="959.1977401129943" y="424.7244094488189" as="targetPoint" />
          </mxGeometry>
        </mxCell>
        <mxCell id="0-PR4jEMZpkDc8mjO-xp-30" value="&amp;lt;&amp;lt;Extends&amp;gt;&amp;gt;" style="edgeLabel;html=1;align=center;verticalAlign=middle;resizable=0;points=[];" vertex="1" connectable="0" parent="0-PR4jEMZpkDc8mjO-xp-29">
          <mxGeometry x="0.1275" relative="1" as="geometry">
            <mxPoint as="offset" />
          </mxGeometry>
        </mxCell>
        <mxCell id="0-PR4jEMZpkDc8mjO-xp-31" value="&lt;span style=&quot;font-size: 15px;&quot;&gt;&lt;b&gt;Log out&lt;/b&gt;&lt;/span&gt;" style="ellipse;whiteSpace=wrap;html=1;fillColor=default;" vertex="1" parent="0-PR4jEMZpkDc8mjO-xp-109">
          <mxGeometry x="879.4350282485876" y="570.8661417322835" width="132.93785310734464" height="57.08661417322835" as="geometry" />
        </mxCell>
        <mxCell id="0-PR4jEMZpkDc8mjO-xp-32" value="" style="endArrow=none;dashed=1;html=1;rounded=0;entryX=0;entryY=0;entryDx=0;entryDy=0;exitX=0.5;exitY=1;exitDx=0;exitDy=0;startArrow=open;startFill=0;strokeWidth=2;" edge="1" parent="0-PR4jEMZpkDc8mjO-xp-109" source="0-PR4jEMZpkDc8mjO-xp-22" target="0-PR4jEMZpkDc8mjO-xp-31">
          <mxGeometry width="50" height="50" relative="1" as="geometry">
            <mxPoint x="843.6440677966102" y="468.1102362204725" as="sourcePoint" />
            <mxPoint x="843.6440677966102" y="411.0236220472441" as="targetPoint" />
          </mxGeometry>
        </mxCell>
        <mxCell id="0-PR4jEMZpkDc8mjO-xp-33" value="&amp;lt;&amp;lt;Extends&amp;gt;&amp;gt;" style="edgeLabel;html=1;align=center;verticalAlign=middle;resizable=0;points=[];" vertex="1" connectable="0" parent="0-PR4jEMZpkDc8mjO-xp-32">
          <mxGeometry x="0.1275" relative="1" as="geometry">
            <mxPoint as="offset" />
          </mxGeometry>
        </mxCell>
        <mxCell id="0-PR4jEMZpkDc8mjO-xp-34" value="&lt;font style=&quot;font-size: 15px;&quot;&gt;&lt;b&gt;Contact support&lt;/b&gt;&lt;/font&gt;" style="ellipse;whiteSpace=wrap;html=1;fillColor=default;" vertex="1" parent="0-PR4jEMZpkDc8mjO-xp-109">
          <mxGeometry x="787.4011299435028" y="833.4645669291338" width="132.93785310734464" height="57.08661417322835" as="geometry" />
        </mxCell>
        <mxCell id="0-PR4jEMZpkDc8mjO-xp-35" value="" style="endArrow=none;html=1;rounded=0;entryX=0;entryY=0.5;entryDx=0;entryDy=0;exitX=0.5;exitY=0.5;exitDx=0;exitDy=0;exitPerimeter=0;" edge="1" parent="0-PR4jEMZpkDc8mjO-xp-109" source="0-PR4jEMZpkDc8mjO-xp-3" target="0-PR4jEMZpkDc8mjO-xp-34">
          <mxGeometry width="50" height="50" relative="1" as="geometry">
            <mxPoint x="209.63276836158192" y="705.5905511811023" as="sourcePoint" />
            <mxPoint x="613.5593220338983" y="827.7559055118111" as="targetPoint" />
          </mxGeometry>
        </mxCell>
        <mxCell id="0-PR4jEMZpkDc8mjO-xp-36" value="" style="endArrow=none;html=1;rounded=0;entryX=0.5;entryY=0.5;entryDx=0;entryDy=0;exitX=1;exitY=0;exitDx=0;exitDy=0;entryPerimeter=0;" edge="1" parent="0-PR4jEMZpkDc8mjO-xp-109" source="0-PR4jEMZpkDc8mjO-xp-34" target="0-PR4jEMZpkDc8mjO-xp-4">
          <mxGeometry width="50" height="50" relative="1" as="geometry">
            <mxPoint x="209.63276836158192" y="705.5905511811023" as="sourcePoint" />
            <mxPoint x="899.8870056497175" y="976.1811023622047" as="targetPoint" />
          </mxGeometry>
        </mxCell>
        <mxCell id="0-PR4jEMZpkDc8mjO-xp-37" value="" style="endArrow=none;html=1;rounded=0;entryX=0.5;entryY=0.5;entryDx=0;entryDy=0;exitX=1;exitY=0.5;exitDx=0;exitDy=0;entryPerimeter=0;" edge="1" parent="0-PR4jEMZpkDc8mjO-xp-109" source="0-PR4jEMZpkDc8mjO-xp-34" target="0-PR4jEMZpkDc8mjO-xp-5">
          <mxGeometry width="50" height="50" relative="1" as="geometry">
            <mxPoint x="1014.4180790960452" y="956.7716535433071" as="sourcePoint" />
            <mxPoint x="1436.7514124293787" y="542.3228346456693" as="targetPoint" />
          </mxGeometry>
        </mxCell>
        <mxCell id="0-PR4jEMZpkDc8mjO-xp-38" value="&lt;font style=&quot;font-size: 15px;&quot;&gt;&lt;b&gt;manage Courses&lt;/b&gt;&lt;/font&gt;" style="ellipse;whiteSpace=wrap;html=1;fillColor=default;" vertex="1" parent="0-PR4jEMZpkDc8mjO-xp-109">
          <mxGeometry x="1135.084745762712" y="239.76377952755905" width="132.93785310734464" height="57.08661417322835" as="geometry" />
        </mxCell>
        <mxCell id="0-PR4jEMZpkDc8mjO-xp-39" value="" style="endArrow=none;html=1;rounded=0;exitX=0.5;exitY=0.5;exitDx=0;exitDy=0;exitPerimeter=0;entryX=1;entryY=1;entryDx=0;entryDy=0;" edge="1" parent="0-PR4jEMZpkDc8mjO-xp-109" source="0-PR4jEMZpkDc8mjO-xp-4" target="0-PR4jEMZpkDc8mjO-xp-38">
          <mxGeometry width="50" height="50" relative="1" as="geometry">
            <mxPoint x="209.63276836158192" y="705.5905511811023" as="sourcePoint" />
            <mxPoint x="581.8587570621469" y="482.9527559055118" as="targetPoint" />
          </mxGeometry>
        </mxCell>
        <mxCell id="0-PR4jEMZpkDc8mjO-xp-40" value="&lt;font style=&quot;&quot;&gt;&lt;span style=&quot;font-size: 15px;&quot;&gt;&lt;b&gt;Delete&amp;nbsp;&lt;/b&gt;&lt;/span&gt;&lt;b style=&quot;font-size: 15px;&quot;&gt;Courses&lt;/b&gt;&lt;/font&gt;" style="ellipse;whiteSpace=wrap;html=1;fillColor=default;" vertex="1" parent="0-PR4jEMZpkDc8mjO-xp-109">
          <mxGeometry x="1227.1186440677966" y="125.59055118110236" width="132.93785310734464" height="57.08661417322835" as="geometry" />
        </mxCell>
        <mxCell id="0-PR4jEMZpkDc8mjO-xp-41" value="&lt;font style=&quot;font-size: 15px;&quot;&gt;&lt;b&gt;Add Courses&lt;/b&gt;&lt;/font&gt;" style="ellipse;whiteSpace=wrap;html=1;fillColor=default;" vertex="1" parent="0-PR4jEMZpkDc8mjO-xp-109">
          <mxGeometry x="1002.1468926553672" y="114.1732283464567" width="132.93785310734464" height="57.08661417322835" as="geometry" />
        </mxCell>
        <mxCell id="0-PR4jEMZpkDc8mjO-xp-42" value="" style="endArrow=none;dashed=1;html=1;rounded=0;entryX=1;entryY=1;entryDx=0;entryDy=0;exitX=0;exitY=0;exitDx=0;exitDy=0;startArrow=open;startFill=0;strokeWidth=2;" edge="1" parent="0-PR4jEMZpkDc8mjO-xp-109" source="0-PR4jEMZpkDc8mjO-xp-38" target="0-PR4jEMZpkDc8mjO-xp-41">
          <mxGeometry width="50" height="50" relative="1" as="geometry">
            <mxPoint x="890.6836158192091" y="476.10236220472444" as="sourcePoint" />
            <mxPoint x="960.2203389830509" y="425.8661417322835" as="targetPoint" />
          </mxGeometry>
        </mxCell>
        <mxCell id="0-PR4jEMZpkDc8mjO-xp-43" value="&amp;lt;&amp;lt;Extends&amp;gt;&amp;gt;" style="edgeLabel;html=1;align=center;verticalAlign=middle;resizable=0;points=[];" vertex="1" connectable="0" parent="0-PR4jEMZpkDc8mjO-xp-42">
          <mxGeometry x="0.1275" relative="1" as="geometry">
            <mxPoint as="offset" />
          </mxGeometry>
        </mxCell>
        <mxCell id="0-PR4jEMZpkDc8mjO-xp-44" value="" style="endArrow=none;dashed=1;html=1;rounded=0;entryX=0.5;entryY=1;entryDx=0;entryDy=0;exitX=0.5;exitY=0;exitDx=0;exitDy=0;startArrow=open;startFill=0;strokeWidth=2;" edge="1" parent="0-PR4jEMZpkDc8mjO-xp-109" source="0-PR4jEMZpkDc8mjO-xp-38" target="0-PR4jEMZpkDc8mjO-xp-40">
          <mxGeometry width="50" height="50" relative="1" as="geometry">
            <mxPoint x="1145.310734463277" y="405.31496062992125" as="sourcePoint" />
            <mxPoint x="1105.4293785310736" y="334.5275590551181" as="targetPoint" />
          </mxGeometry>
        </mxCell>
        <mxCell id="0-PR4jEMZpkDc8mjO-xp-45" value="&amp;lt;&amp;lt;Extends&amp;gt;&amp;gt;" style="edgeLabel;html=1;align=center;verticalAlign=middle;resizable=0;points=[];" vertex="1" connectable="0" parent="0-PR4jEMZpkDc8mjO-xp-44">
          <mxGeometry x="0.1275" relative="1" as="geometry">
            <mxPoint as="offset" />
          </mxGeometry>
        </mxCell>
        <mxCell id="0-PR4jEMZpkDc8mjO-xp-46" value="&lt;font style=&quot;&quot;&gt;&lt;span style=&quot;font-size: 15px;&quot;&gt;&lt;b&gt;Update&amp;nbsp;&lt;/b&gt;&lt;/span&gt;&lt;b style=&quot;font-size: 15px;&quot;&gt;Courses&lt;/b&gt;&lt;/font&gt;" style="ellipse;whiteSpace=wrap;html=1;fillColor=default;" vertex="1" parent="0-PR4jEMZpkDc8mjO-xp-109">
          <mxGeometry x="1002.1468926553672" y="365.3543307086614" width="132.93785310734464" height="57.08661417322835" as="geometry" />
        </mxCell>
        <mxCell id="0-PR4jEMZpkDc8mjO-xp-47" value="" style="endArrow=none;dashed=1;html=1;rounded=0;entryX=1;entryY=0;entryDx=0;entryDy=0;exitX=0;exitY=1;exitDx=0;exitDy=0;startArrow=open;startFill=0;strokeWidth=2;" edge="1" parent="0-PR4jEMZpkDc8mjO-xp-109" source="0-PR4jEMZpkDc8mjO-xp-38" target="0-PR4jEMZpkDc8mjO-xp-46">
          <mxGeometry width="50" height="50" relative="1" as="geometry">
            <mxPoint x="1211.7796610169491" y="376.7716535433071" as="sourcePoint" />
            <mxPoint x="1201.553672316384" y="296.8503937007874" as="targetPoint" />
          </mxGeometry>
        </mxCell>
        <mxCell id="0-PR4jEMZpkDc8mjO-xp-48" value="&amp;lt;&amp;lt;Extends&amp;gt;&amp;gt;" style="edgeLabel;html=1;align=center;verticalAlign=middle;resizable=0;points=[];" vertex="1" connectable="0" parent="0-PR4jEMZpkDc8mjO-xp-47">
          <mxGeometry x="0.1275" relative="1" as="geometry">
            <mxPoint x="2" y="-1" as="offset" />
          </mxGeometry>
        </mxCell>
        <mxCell id="0-PR4jEMZpkDc8mjO-xp-49" value="&lt;font style=&quot;font-size: 15px;&quot;&gt;&lt;b&gt;view Grades&lt;/b&gt;&lt;/font&gt;" style="ellipse;whiteSpace=wrap;html=1;fillColor=default;" vertex="1" parent="0-PR4jEMZpkDc8mjO-xp-109">
          <mxGeometry x="347.683615819209" y="844.8818897637796" width="132.93785310734464" height="57.08661417322835" as="geometry" />
        </mxCell>
        <mxCell id="0-PR4jEMZpkDc8mjO-xp-50" value="&lt;font style=&quot;font-size: 15px;&quot;&gt;&lt;b&gt;view Feedback&lt;/b&gt;&lt;/font&gt;" style="ellipse;whiteSpace=wrap;html=1;fillColor=default;" vertex="1" parent="0-PR4jEMZpkDc8mjO-xp-109">
          <mxGeometry x="562.4293785310734" y="879.1338582677166" width="132.93785310734464" height="57.08661417322835" as="geometry" />
        </mxCell>
        <mxCell id="0-PR4jEMZpkDc8mjO-xp-51" value="" style="endArrow=none;html=1;rounded=0;entryX=0;entryY=0;entryDx=0;entryDy=0;exitX=0.5;exitY=0.5;exitDx=0;exitDy=0;exitPerimeter=0;" edge="1" parent="0-PR4jEMZpkDc8mjO-xp-109" source="0-PR4jEMZpkDc8mjO-xp-3" target="0-PR4jEMZpkDc8mjO-xp-55">
          <mxGeometry width="50" height="50" relative="1" as="geometry">
            <mxPoint x="209.63276836158192" y="705.5905511811023" as="sourcePoint" />
            <mxPoint x="899.8870056497175" y="976.1811023622047" as="targetPoint" />
          </mxGeometry>
        </mxCell>
        <mxCell id="0-PR4jEMZpkDc8mjO-xp-52" value="" style="endArrow=none;html=1;rounded=0;entryX=0;entryY=0;entryDx=0;entryDy=0;exitX=0.5;exitY=0.5;exitDx=0;exitDy=0;exitPerimeter=0;" edge="1" parent="0-PR4jEMZpkDc8mjO-xp-109" source="0-PR4jEMZpkDc8mjO-xp-3" target="0-PR4jEMZpkDc8mjO-xp-50">
          <mxGeometry width="50" height="50" relative="1" as="geometry">
            <mxPoint x="209.63276836158192" y="705.5905511811023" as="sourcePoint" />
            <mxPoint x="765.9265536723163" y="978.4645669291339" as="targetPoint" />
          </mxGeometry>
        </mxCell>
        <mxCell id="0-PR4jEMZpkDc8mjO-xp-53" value="&lt;span style=&quot;font-size: 15px;&quot;&gt;&lt;b&gt;Upload Code&lt;/b&gt;&lt;/span&gt;" style="ellipse;whiteSpace=wrap;html=1;fillColor=default;" vertex="1" parent="0-PR4jEMZpkDc8mjO-xp-109">
          <mxGeometry x="501.0734463276836" y="125.59055118110236" width="132.93785310734464" height="57.08661417322835" as="geometry" />
        </mxCell>
        <mxCell id="0-PR4jEMZpkDc8mjO-xp-54" value="" style="endArrow=none;html=1;rounded=0;entryX=0;entryY=0.5;entryDx=0;entryDy=0;exitX=0.5;exitY=0.5;exitDx=0;exitDy=0;exitPerimeter=0;" edge="1" parent="0-PR4jEMZpkDc8mjO-xp-109" source="0-PR4jEMZpkDc8mjO-xp-2" target="0-PR4jEMZpkDc8mjO-xp-53">
          <mxGeometry width="50" height="50" relative="1" as="geometry">
            <mxPoint x="818.0790960451977" y="947.6377952755905" as="sourcePoint" />
            <mxPoint x="869.2090395480226" y="890.5511811023622" as="targetPoint" />
          </mxGeometry>
        </mxCell>
        <mxCell id="0-PR4jEMZpkDc8mjO-xp-55" value="&lt;font style=&quot;font-size: 15px;&quot;&gt;&lt;b&gt;manage messages&lt;/b&gt;&lt;/font&gt;" style="ellipse;whiteSpace=wrap;html=1;fillColor=default;" vertex="1" parent="0-PR4jEMZpkDc8mjO-xp-109">
          <mxGeometry x="715.819209039548" y="890.5511811023622" width="132.93785310734464" height="57.08661417322835" as="geometry" />
        </mxCell>
        <mxCell id="0-PR4jEMZpkDc8mjO-xp-56" value="&lt;font style=&quot;font-size: 15px;&quot;&gt;&lt;b&gt;send messages&lt;/b&gt;&lt;/font&gt;" style="ellipse;whiteSpace=wrap;html=1;fillColor=default;" vertex="1" parent="0-PR4jEMZpkDc8mjO-xp-109">
          <mxGeometry x="858.9830508474577" y="970.4724409448819" width="132.93785310734464" height="57.08661417322835" as="geometry" />
        </mxCell>
        <mxCell id="0-PR4jEMZpkDc8mjO-xp-57" value="&lt;font style=&quot;font-size: 15px;&quot;&gt;&lt;b&gt;view messages&lt;/b&gt;&lt;/font&gt;" style="ellipse;whiteSpace=wrap;html=1;fillColor=default;" vertex="1" parent="0-PR4jEMZpkDc8mjO-xp-109">
          <mxGeometry x="951.0169491525423" y="907.6771653543308" width="132.93785310734464" height="57.08661417322835" as="geometry" />
        </mxCell>
        <mxCell id="0-PR4jEMZpkDc8mjO-xp-58" value="" style="endArrow=none;dashed=1;html=1;rounded=0;entryX=0;entryY=0.5;entryDx=0;entryDy=0;exitX=1;exitY=0.5;exitDx=0;exitDy=0;startArrow=open;startFill=0;strokeWidth=2;" edge="1" parent="0-PR4jEMZpkDc8mjO-xp-109" source="0-PR4jEMZpkDc8mjO-xp-55" target="0-PR4jEMZpkDc8mjO-xp-57">
          <mxGeometry width="50" height="50" relative="1" as="geometry">
            <mxPoint x="747.5197740112994" y="681.6141732283464" as="sourcePoint" />
            <mxPoint x="777.1751412429379" y="616.5354330708661" as="targetPoint" />
          </mxGeometry>
        </mxCell>
        <mxCell id="0-PR4jEMZpkDc8mjO-xp-59" value="&amp;lt;&amp;lt;Extends&amp;gt;&amp;gt;" style="edgeLabel;html=1;align=center;verticalAlign=middle;resizable=0;points=[];" vertex="1" connectable="0" parent="0-PR4jEMZpkDc8mjO-xp-58">
          <mxGeometry x="0.1275" relative="1" as="geometry">
            <mxPoint as="offset" />
          </mxGeometry>
        </mxCell>
        <mxCell id="0-PR4jEMZpkDc8mjO-xp-60" value="" style="endArrow=none;dashed=1;html=1;rounded=0;entryX=0;entryY=0.5;entryDx=0;entryDy=0;exitX=0.5;exitY=1;exitDx=0;exitDy=0;startArrow=open;startFill=0;strokeWidth=2;" edge="1" parent="0-PR4jEMZpkDc8mjO-xp-109" source="0-PR4jEMZpkDc8mjO-xp-55" target="0-PR4jEMZpkDc8mjO-xp-56">
          <mxGeometry width="50" height="50" relative="1" as="geometry">
            <mxPoint x="858.9830508474577" y="930.511811023622" as="sourcePoint" />
            <mxPoint x="949.9943502824859" y="955.6299212598425" as="targetPoint" />
          </mxGeometry>
        </mxCell>
        <mxCell id="0-PR4jEMZpkDc8mjO-xp-61" value="&amp;lt;&amp;lt;Extends&amp;gt;&amp;gt;" style="edgeLabel;html=1;align=center;verticalAlign=middle;resizable=0;points=[];" vertex="1" connectable="0" parent="0-PR4jEMZpkDc8mjO-xp-60">
          <mxGeometry x="0.1275" relative="1" as="geometry">
            <mxPoint as="offset" />
          </mxGeometry>
        </mxCell>
        <mxCell id="0-PR4jEMZpkDc8mjO-xp-62" value="" style="endArrow=none;html=1;rounded=0;entryX=0;entryY=0;entryDx=0;entryDy=0;exitX=0.5;exitY=0.5;exitDx=0;exitDy=0;exitPerimeter=0;" edge="1" parent="0-PR4jEMZpkDc8mjO-xp-109" source="0-PR4jEMZpkDc8mjO-xp-3" target="0-PR4jEMZpkDc8mjO-xp-49">
          <mxGeometry width="50" height="50" relative="1" as="geometry">
            <mxPoint x="56.24293785310734" y="642.7952755905512" as="sourcePoint" />
            <mxPoint x="591.0621468926554" y="899.6850393700788" as="targetPoint" />
          </mxGeometry>
        </mxCell>
        <mxCell id="0-PR4jEMZpkDc8mjO-xp-63" value="&lt;font style=&quot;font-size: 15px;&quot;&gt;&lt;b&gt;View Tasks&lt;/b&gt;&lt;/font&gt;" style="ellipse;whiteSpace=wrap;html=1;fillColor=default;" vertex="1" parent="0-PR4jEMZpkDc8mjO-xp-109">
          <mxGeometry x="306.77966101694915" y="365.3543307086614" width="132.93785310734464" height="57.08661417322835" as="geometry" />
        </mxCell>
        <mxCell id="0-PR4jEMZpkDc8mjO-xp-64" value="" style="endArrow=none;html=1;rounded=0;exitX=0.5;exitY=0.5;exitDx=0;exitDy=0;exitPerimeter=0;entryX=0;entryY=1;entryDx=0;entryDy=0;" edge="1" parent="0-PR4jEMZpkDc8mjO-xp-109" source="0-PR4jEMZpkDc8mjO-xp-3" target="0-PR4jEMZpkDc8mjO-xp-63">
          <mxGeometry width="50" height="50" relative="1" as="geometry">
            <mxPoint x="56.24293785310734" y="642.7952755905512" as="sourcePoint" />
            <mxPoint x="631.9661016949152" y="516.0629921259842" as="targetPoint" />
          </mxGeometry>
        </mxCell>
        <mxCell id="0-PR4jEMZpkDc8mjO-xp-65" value="&lt;font style=&quot;font-size: 15px;&quot;&gt;&lt;b&gt;View Recent Tasks&lt;/b&gt;&lt;/font&gt;" style="ellipse;whiteSpace=wrap;html=1;fillColor=default;" vertex="1" parent="0-PR4jEMZpkDc8mjO-xp-109">
          <mxGeometry x="276.10169491525426" y="262.5984251968504" width="132.93785310734464" height="57.08661417322835" as="geometry" />
        </mxCell>
        <mxCell id="0-PR4jEMZpkDc8mjO-xp-66" value="&lt;font style=&quot;font-size: 15px;&quot;&gt;&lt;b&gt;View missed Tasks&lt;/b&gt;&lt;/font&gt;" style="ellipse;whiteSpace=wrap;html=1;fillColor=default;" vertex="1" parent="0-PR4jEMZpkDc8mjO-xp-109">
          <mxGeometry x="439.7175141242938" y="274.01574803149606" width="132.93785310734464" height="57.08661417322835" as="geometry" />
        </mxCell>
        <mxCell id="0-PR4jEMZpkDc8mjO-xp-67" value="&lt;font style=&quot;&quot;&gt;&lt;b style=&quot;font-size: 15px;&quot;&gt;View&lt;/b&gt;&lt;/font&gt;&lt;div&gt;&lt;font style=&quot;&quot;&gt;&lt;span style=&quot;font-size: 15px;&quot;&gt;&lt;b&gt;completed&amp;nbsp;&lt;/b&gt;&lt;/span&gt;&lt;b style=&quot;font-size: 15px;&quot;&gt;Tasks&lt;/b&gt;&lt;/font&gt;&lt;/div&gt;" style="ellipse;whiteSpace=wrap;html=1;fillColor=default;" vertex="1" parent="0-PR4jEMZpkDc8mjO-xp-109">
          <mxGeometry x="112.48587570621469" y="331.10236220472444" width="132.93785310734464" height="57.08661417322835" as="geometry" />
        </mxCell>
        <mxCell id="0-PR4jEMZpkDc8mjO-xp-68" value="" style="endArrow=none;dashed=1;html=1;rounded=0;entryX=0;entryY=1;entryDx=0;entryDy=0;exitX=1;exitY=0;exitDx=0;exitDy=0;startArrow=open;startFill=0;strokeWidth=2;" edge="1" parent="0-PR4jEMZpkDc8mjO-xp-109" source="0-PR4jEMZpkDc8mjO-xp-63" target="0-PR4jEMZpkDc8mjO-xp-66">
          <mxGeometry width="50" height="50" relative="1" as="geometry">
            <mxPoint x="755.7005649717514" y="396.18110236220474" as="sourcePoint" />
            <mxPoint x="710.7062146892655" y="331.10236220472444" as="targetPoint" />
          </mxGeometry>
        </mxCell>
        <mxCell id="0-PR4jEMZpkDc8mjO-xp-69" value="&amp;lt;&amp;lt;Extends&amp;gt;&amp;gt;" style="edgeLabel;html=1;align=center;verticalAlign=middle;resizable=0;points=[];" vertex="1" connectable="0" parent="0-PR4jEMZpkDc8mjO-xp-68">
          <mxGeometry x="0.1275" relative="1" as="geometry">
            <mxPoint as="offset" />
          </mxGeometry>
        </mxCell>
        <mxCell id="0-PR4jEMZpkDc8mjO-xp-70" value="" style="endArrow=none;dashed=1;html=1;rounded=0;entryX=0.5;entryY=1;entryDx=0;entryDy=0;exitX=0.5;exitY=0;exitDx=0;exitDy=0;startArrow=open;startFill=0;strokeWidth=2;" edge="1" parent="0-PR4jEMZpkDc8mjO-xp-109" source="0-PR4jEMZpkDc8mjO-xp-63" target="0-PR4jEMZpkDc8mjO-xp-65">
          <mxGeometry width="50" height="50" relative="1" as="geometry">
            <mxPoint x="430.5141242937853" y="384.7637795275591" as="sourcePoint" />
            <mxPoint x="469.37288135593224" y="334.5275590551181" as="targetPoint" />
          </mxGeometry>
        </mxCell>
        <mxCell id="0-PR4jEMZpkDc8mjO-xp-71" value="&amp;lt;&amp;lt;Extends&amp;gt;&amp;gt;" style="edgeLabel;html=1;align=center;verticalAlign=middle;resizable=0;points=[];" vertex="1" connectable="0" parent="0-PR4jEMZpkDc8mjO-xp-70">
          <mxGeometry x="0.1275" relative="1" as="geometry">
            <mxPoint as="offset" />
          </mxGeometry>
        </mxCell>
        <mxCell id="0-PR4jEMZpkDc8mjO-xp-72" value="" style="endArrow=none;dashed=1;html=1;rounded=0;entryX=1;entryY=0.5;entryDx=0;entryDy=0;exitX=0;exitY=0.5;exitDx=0;exitDy=0;startArrow=open;startFill=0;strokeWidth=2;" edge="1" parent="0-PR4jEMZpkDc8mjO-xp-109" source="0-PR4jEMZpkDc8mjO-xp-63" target="0-PR4jEMZpkDc8mjO-xp-67">
          <mxGeometry width="50" height="50" relative="1" as="geometry">
            <mxPoint x="383.47457627118644" y="376.7716535433071" as="sourcePoint" />
            <mxPoint x="352.79661016949154" y="331.10236220472444" as="targetPoint" />
          </mxGeometry>
        </mxCell>
        <mxCell id="0-PR4jEMZpkDc8mjO-xp-73" value="&amp;lt;&amp;lt;Extends&amp;gt;&amp;gt;" style="edgeLabel;html=1;align=center;verticalAlign=middle;resizable=0;points=[];" vertex="1" connectable="0" parent="0-PR4jEMZpkDc8mjO-xp-72">
          <mxGeometry x="0.1275" relative="1" as="geometry">
            <mxPoint as="offset" />
          </mxGeometry>
        </mxCell>
        <mxCell id="0-PR4jEMZpkDc8mjO-xp-74" value="&lt;font style=&quot;font-size: 15px;&quot;&gt;&lt;b&gt;manage feedback&lt;/b&gt;&lt;/font&gt;" style="ellipse;whiteSpace=wrap;html=1;fillColor=default;" vertex="1" parent="0-PR4jEMZpkDc8mjO-xp-109">
          <mxGeometry x="511.2994350282486" y="1027.55905511811" width="132.93785310734464" height="57.08661417322835" as="geometry" />
        </mxCell>
        <mxCell id="0-PR4jEMZpkDc8mjO-xp-75" value="&lt;font style=&quot;font-size: 15px;&quot;&gt;&lt;b&gt;delete feedback&lt;/b&gt;&lt;/font&gt;" style="ellipse;whiteSpace=wrap;html=1;fillColor=default;" vertex="1" parent="0-PR4jEMZpkDc8mjO-xp-109">
          <mxGeometry x="623.7853107344633" y="1107.48031496063" width="132.93785310734464" height="57.08661417322835" as="geometry" />
        </mxCell>
        <mxCell id="0-PR4jEMZpkDc8mjO-xp-76" value="&lt;font style=&quot;font-size: 15px;&quot;&gt;&lt;b&gt;add feedback&lt;/b&gt;&lt;/font&gt;" style="ellipse;whiteSpace=wrap;html=1;fillColor=default;" vertex="1" parent="0-PR4jEMZpkDc8mjO-xp-109">
          <mxGeometry x="746.4971751412429" y="1050.3937007874017" width="132.93785310734464" height="57.08661417322835" as="geometry" />
        </mxCell>
        <mxCell id="0-PR4jEMZpkDc8mjO-xp-77" value="" style="endArrow=none;dashed=1;html=1;rounded=0;entryX=0;entryY=0.5;entryDx=0;entryDy=0;exitX=1;exitY=0.5;exitDx=0;exitDy=0;startArrow=open;startFill=0;strokeWidth=2;" edge="1" parent="0-PR4jEMZpkDc8mjO-xp-109" source="0-PR4jEMZpkDc8mjO-xp-74" target="0-PR4jEMZpkDc8mjO-xp-76">
          <mxGeometry width="50" height="50" relative="1" as="geometry">
            <mxPoint x="792.5141242937854" y="959.0551181102362" as="sourcePoint" />
            <mxPoint x="869.2090395480226" y="1010.4330708661417" as="targetPoint" />
          </mxGeometry>
        </mxCell>
        <mxCell id="0-PR4jEMZpkDc8mjO-xp-78" value="&amp;lt;&amp;lt;Extends&amp;gt;&amp;gt;" style="edgeLabel;html=1;align=center;verticalAlign=middle;resizable=0;points=[];" vertex="1" connectable="0" parent="0-PR4jEMZpkDc8mjO-xp-77">
          <mxGeometry x="0.1275" relative="1" as="geometry">
            <mxPoint as="offset" />
          </mxGeometry>
        </mxCell>
        <mxCell id="0-PR4jEMZpkDc8mjO-xp-79" value="" style="endArrow=none;dashed=1;html=1;rounded=0;entryX=0;entryY=0;entryDx=0;entryDy=0;exitX=0.5;exitY=1;exitDx=0;exitDy=0;startArrow=open;startFill=0;strokeWidth=2;" edge="1" parent="0-PR4jEMZpkDc8mjO-xp-109" source="0-PR4jEMZpkDc8mjO-xp-74" target="0-PR4jEMZpkDc8mjO-xp-75">
          <mxGeometry width="50" height="50" relative="1" as="geometry">
            <mxPoint x="654.4632768361582" y="1067.5196850393702" as="sourcePoint" />
            <mxPoint x="736.271186440678" y="1101.771653543307" as="targetPoint" />
          </mxGeometry>
        </mxCell>
        <mxCell id="0-PR4jEMZpkDc8mjO-xp-80" value="&amp;lt;&amp;lt;Extends&amp;gt;&amp;gt;" style="edgeLabel;html=1;align=center;verticalAlign=middle;resizable=0;points=[];" vertex="1" connectable="0" parent="0-PR4jEMZpkDc8mjO-xp-79">
          <mxGeometry x="0.1275" relative="1" as="geometry">
            <mxPoint as="offset" />
          </mxGeometry>
        </mxCell>
        <mxCell id="0-PR4jEMZpkDc8mjO-xp-81" value="" style="endArrow=none;html=1;rounded=0;entryX=0;entryY=0.5;entryDx=0;entryDy=0;exitX=0.5;exitY=0.5;exitDx=0;exitDy=0;exitPerimeter=0;" edge="1" parent="0-PR4jEMZpkDc8mjO-xp-109" source="0-PR4jEMZpkDc8mjO-xp-1" target="0-PR4jEMZpkDc8mjO-xp-74">
          <mxGeometry width="50" height="50" relative="1" as="geometry">
            <mxPoint x="56.24293785310734" y="642.7952755905512" as="sourcePoint" />
            <mxPoint x="427.44632768361583" y="876.8503937007874" as="targetPoint" />
          </mxGeometry>
        </mxCell>
        <mxCell id="0-PR4jEMZpkDc8mjO-xp-82" value="" style="endArrow=none;html=1;rounded=0;exitX=1;exitY=0.5;exitDx=0;exitDy=0;entryX=0.5;entryY=0.5;entryDx=0;entryDy=0;entryPerimeter=0;" edge="1" parent="0-PR4jEMZpkDc8mjO-xp-109" source="0-PR4jEMZpkDc8mjO-xp-76" target="0-PR4jEMZpkDc8mjO-xp-5">
          <mxGeometry width="50" height="50" relative="1" as="geometry">
            <mxPoint x="930.5649717514125" y="873.4251968503937" as="sourcePoint" />
            <mxPoint x="1298.7005649717514" y="959.0551181102362" as="targetPoint" />
          </mxGeometry>
        </mxCell>
        <mxCell id="0-PR4jEMZpkDc8mjO-xp-83" value="&lt;font style=&quot;font-size: 15px;&quot;&gt;&lt;b&gt;manage Grades&lt;/b&gt;&lt;/font&gt;" style="ellipse;whiteSpace=wrap;html=1;fillColor=default;" vertex="1" parent="0-PR4jEMZpkDc8mjO-xp-109">
          <mxGeometry x="409.03954802259886" y="1153.1496062992126" width="132.93785310734464" height="57.08661417322835" as="geometry" />
        </mxCell>
        <mxCell id="0-PR4jEMZpkDc8mjO-xp-84" value="&lt;font style=&quot;font-size: 15px;&quot;&gt;&lt;b&gt;add Grades&lt;/b&gt;&lt;/font&gt;" style="ellipse;whiteSpace=wrap;html=1;fillColor=default;" vertex="1" parent="0-PR4jEMZpkDc8mjO-xp-109">
          <mxGeometry x="654.4632768361582" y="1175.984251968504" width="132.93785310734464" height="57.08661417322835" as="geometry" />
        </mxCell>
        <mxCell id="0-PR4jEMZpkDc8mjO-xp-85" value="&lt;font style=&quot;font-size: 15px;&quot;&gt;&lt;b&gt;update Grades&lt;/b&gt;&lt;/font&gt;" style="ellipse;whiteSpace=wrap;html=1;fillColor=default;" vertex="1" parent="0-PR4jEMZpkDc8mjO-xp-109">
          <mxGeometry x="623.7853107344633" y="1278.740157480315" width="132.93785310734464" height="57.08661417322835" as="geometry" />
        </mxCell>
        <mxCell id="0-PR4jEMZpkDc8mjO-xp-86" value="" style="endArrow=none;dashed=1;html=1;rounded=0;entryX=0;entryY=0.5;entryDx=0;entryDy=0;exitX=1;exitY=0.5;exitDx=0;exitDy=0;startArrow=open;startFill=0;strokeWidth=2;" edge="1" parent="0-PR4jEMZpkDc8mjO-xp-109" source="0-PR4jEMZpkDc8mjO-xp-83" target="0-PR4jEMZpkDc8mjO-xp-84">
          <mxGeometry width="50" height="50" relative="1" as="geometry">
            <mxPoint x="587.9943502824859" y="1096.0629921259842" as="sourcePoint" />
            <mxPoint x="653.4406779661017" y="1126.8897637795276" as="targetPoint" />
          </mxGeometry>
        </mxCell>
        <mxCell id="0-PR4jEMZpkDc8mjO-xp-87" value="&amp;lt;&amp;lt;Extends&amp;gt;&amp;gt;" style="edgeLabel;html=1;align=center;verticalAlign=middle;resizable=0;points=[];" vertex="1" connectable="0" parent="0-PR4jEMZpkDc8mjO-xp-86">
          <mxGeometry x="0.1275" relative="1" as="geometry">
            <mxPoint as="offset" />
          </mxGeometry>
        </mxCell>
        <mxCell id="0-PR4jEMZpkDc8mjO-xp-88" value="" style="endArrow=none;dashed=1;html=1;rounded=0;entryX=0;entryY=0;entryDx=0;entryDy=0;exitX=1;exitY=1;exitDx=0;exitDy=0;startArrow=open;startFill=0;strokeWidth=2;" edge="1" parent="0-PR4jEMZpkDc8mjO-xp-109" source="0-PR4jEMZpkDc8mjO-xp-83" target="0-PR4jEMZpkDc8mjO-xp-85">
          <mxGeometry width="50" height="50" relative="1" as="geometry">
            <mxPoint x="593.1073446327683" y="1250.196850393701" as="sourcePoint" />
            <mxPoint x="664.6892655367232" y="1215.9448818897638" as="targetPoint" />
          </mxGeometry>
        </mxCell>
        <mxCell id="0-PR4jEMZpkDc8mjO-xp-89" value="&amp;lt;&amp;lt;Extends&amp;gt;&amp;gt;" style="edgeLabel;html=1;align=center;verticalAlign=middle;resizable=0;points=[];" vertex="1" connectable="0" parent="0-PR4jEMZpkDc8mjO-xp-88">
          <mxGeometry x="0.1275" relative="1" as="geometry">
            <mxPoint as="offset" />
          </mxGeometry>
        </mxCell>
        <mxCell id="0-PR4jEMZpkDc8mjO-xp-90" value="" style="endArrow=none;html=1;rounded=0;exitX=1;exitY=0.5;exitDx=0;exitDy=0;entryX=0.5;entryY=0.5;entryDx=0;entryDy=0;entryPerimeter=0;" edge="1" parent="0-PR4jEMZpkDc8mjO-xp-109" source="0-PR4jEMZpkDc8mjO-xp-84" target="0-PR4jEMZpkDc8mjO-xp-5">
          <mxGeometry width="50" height="50" relative="1" as="geometry">
            <mxPoint x="889.6610169491526" y="1090.3543307086616" as="sourcePoint" />
            <mxPoint x="1436.7514124293787" y="953.3464566929134" as="targetPoint" />
          </mxGeometry>
        </mxCell>
        <mxCell id="0-PR4jEMZpkDc8mjO-xp-91" value="" style="endArrow=none;html=1;rounded=0;entryX=0;entryY=0;entryDx=0;entryDy=0;exitX=0.5;exitY=0.5;exitDx=0;exitDy=0;exitPerimeter=0;" edge="1" parent="0-PR4jEMZpkDc8mjO-xp-109" source="0-PR4jEMZpkDc8mjO-xp-1" target="0-PR4jEMZpkDc8mjO-xp-83">
          <mxGeometry width="50" height="50" relative="1" as="geometry">
            <mxPoint x="56.24293785310734" y="1038.976377952756" as="sourcePoint" />
            <mxPoint x="521.5254237288136" y="1067.5196850393702" as="targetPoint" />
          </mxGeometry>
        </mxCell>
        <mxCell id="0-PR4jEMZpkDc8mjO-xp-92" value="&lt;font style=&quot;font-size: 15px;&quot;&gt;&lt;b&gt;manage Tasks&lt;/b&gt;&lt;/font&gt;" style="ellipse;whiteSpace=wrap;html=1;fillColor=default;" vertex="1" parent="0-PR4jEMZpkDc8mjO-xp-109">
          <mxGeometry x="276.10169491525426" y="1221.6535433070867" width="132.93785310734464" height="57.08661417322835" as="geometry" />
        </mxCell>
        <mxCell id="0-PR4jEMZpkDc8mjO-xp-93" value="" style="endArrow=none;html=1;rounded=0;entryX=0;entryY=0;entryDx=0;entryDy=0;exitX=0.5;exitY=0.5;exitDx=0;exitDy=0;exitPerimeter=0;" edge="1" parent="0-PR4jEMZpkDc8mjO-xp-109" source="0-PR4jEMZpkDc8mjO-xp-1" target="0-PR4jEMZpkDc8mjO-xp-92">
          <mxGeometry width="50" height="50" relative="1" as="geometry">
            <mxPoint x="56.24293785310734" y="1038.976377952756" as="sourcePoint" />
            <mxPoint x="478.5762711864407" y="1230.7874015748032" as="targetPoint" />
          </mxGeometry>
        </mxCell>
        <mxCell id="0-PR4jEMZpkDc8mjO-xp-94" value="&lt;font style=&quot;font-size: 15px;&quot;&gt;&lt;b&gt;add Tasks&lt;/b&gt;&lt;/font&gt;" style="ellipse;whiteSpace=wrap;html=1;fillColor=default;" vertex="1" parent="0-PR4jEMZpkDc8mjO-xp-109">
          <mxGeometry x="501.0734463276836" y="1335.8267716535433" width="132.93785310734464" height="57.08661417322835" as="geometry" />
        </mxCell>
        <mxCell id="0-PR4jEMZpkDc8mjO-xp-95" value="&lt;font style=&quot;font-size: 15px;&quot;&gt;&lt;b&gt;delete Tasks&lt;/b&gt;&lt;/font&gt;" style="ellipse;whiteSpace=wrap;html=1;fillColor=default;" vertex="1" parent="0-PR4jEMZpkDc8mjO-xp-109">
          <mxGeometry x="214.74576271186442" y="1370.0787401574803" width="132.93785310734464" height="57.08661417322835" as="geometry" />
        </mxCell>
        <mxCell id="0-PR4jEMZpkDc8mjO-xp-96" value="&lt;font style=&quot;font-size: 15px;&quot;&gt;&lt;b&gt;update Tasks&lt;/b&gt;&lt;/font&gt;" style="ellipse;whiteSpace=wrap;html=1;fillColor=default;" vertex="1" parent="0-PR4jEMZpkDc8mjO-xp-109">
          <mxGeometry x="357.909604519774" y="1370.0787401574803" width="132.93785310734464" height="57.08661417322835" as="geometry" />
        </mxCell>
        <mxCell id="0-PR4jEMZpkDc8mjO-xp-97" value="" style="endArrow=none;dashed=1;html=1;rounded=0;entryX=0;entryY=0;entryDx=0;entryDy=0;exitX=1;exitY=1;exitDx=0;exitDy=0;startArrow=open;startFill=0;strokeWidth=2;" edge="1" parent="0-PR4jEMZpkDc8mjO-xp-109" source="0-PR4jEMZpkDc8mjO-xp-92" target="0-PR4jEMZpkDc8mjO-xp-94">
          <mxGeometry width="50" height="50" relative="1" as="geometry">
            <mxPoint x="573.6779661016949" y="1270.748031496063" as="sourcePoint" />
            <mxPoint x="653.4406779661017" y="1298.1496062992126" as="targetPoint" />
          </mxGeometry>
        </mxCell>
        <mxCell id="0-PR4jEMZpkDc8mjO-xp-98" value="&amp;lt;&amp;lt;Extends&amp;gt;&amp;gt;" style="edgeLabel;html=1;align=center;verticalAlign=middle;resizable=0;points=[];" vertex="1" connectable="0" parent="0-PR4jEMZpkDc8mjO-xp-97">
          <mxGeometry x="0.1275" relative="1" as="geometry">
            <mxPoint as="offset" />
          </mxGeometry>
        </mxCell>
        <mxCell id="0-PR4jEMZpkDc8mjO-xp-99" value="" style="endArrow=none;dashed=1;html=1;rounded=0;entryX=0.5;entryY=0;entryDx=0;entryDy=0;exitX=0.5;exitY=1;exitDx=0;exitDy=0;startArrow=open;startFill=0;strokeWidth=2;" edge="1" parent="0-PR4jEMZpkDc8mjO-xp-109" source="0-PR4jEMZpkDc8mjO-xp-92" target="0-PR4jEMZpkDc8mjO-xp-96">
          <mxGeometry width="50" height="50" relative="1" as="geometry">
            <mxPoint x="399.8361581920904" y="1282.1653543307086" as="sourcePoint" />
            <mxPoint x="530.728813559322" y="1355.236220472441" as="targetPoint" />
          </mxGeometry>
        </mxCell>
        <mxCell id="0-PR4jEMZpkDc8mjO-xp-100" value="&amp;lt;&amp;lt;Extends&amp;gt;&amp;gt;" style="edgeLabel;html=1;align=center;verticalAlign=middle;resizable=0;points=[];" vertex="1" connectable="0" parent="0-PR4jEMZpkDc8mjO-xp-99">
          <mxGeometry x="0.1275" relative="1" as="geometry">
            <mxPoint as="offset" />
          </mxGeometry>
        </mxCell>
        <mxCell id="0-PR4jEMZpkDc8mjO-xp-101" value="" style="endArrow=none;dashed=1;html=1;rounded=0;entryX=0.5;entryY=0;entryDx=0;entryDy=0;exitX=0;exitY=1;exitDx=0;exitDy=0;startArrow=open;startFill=0;strokeWidth=2;" edge="1" parent="0-PR4jEMZpkDc8mjO-xp-109" source="0-PR4jEMZpkDc8mjO-xp-92" target="0-PR4jEMZpkDc8mjO-xp-95">
          <mxGeometry width="50" height="50" relative="1" as="geometry">
            <mxPoint x="352.79661016949154" y="1290.1574803149606" as="sourcePoint" />
            <mxPoint x="434.6045197740113" y="1392.9133858267717" as="targetPoint" />
          </mxGeometry>
        </mxCell>
        <mxCell id="0-PR4jEMZpkDc8mjO-xp-102" value="&amp;lt;&amp;lt;Extends&amp;gt;&amp;gt;" style="edgeLabel;html=1;align=center;verticalAlign=middle;resizable=0;points=[];" vertex="1" connectable="0" parent="0-PR4jEMZpkDc8mjO-xp-101">
          <mxGeometry x="0.1275" relative="1" as="geometry">
            <mxPoint as="offset" />
          </mxGeometry>
        </mxCell>
        <mxCell id="0-PR4jEMZpkDc8mjO-xp-103" value="" style="endArrow=none;dashed=1;html=1;rounded=0;entryX=1;entryY=0.5;entryDx=0;entryDy=0;startArrow=open;startFill=0;strokeWidth=2;exitX=0;exitY=0.5;exitDx=0;exitDy=0;" edge="1" parent="0-PR4jEMZpkDc8mjO-xp-109" source="0-PR4jEMZpkDc8mjO-xp-38" target="0-PR4jEMZpkDc8mjO-xp-7">
          <mxGeometry width="50" height="50" relative="1" as="geometry">
            <mxPoint x="1063.502824858757" y="296.8503937007874" as="sourcePoint" />
            <mxPoint x="1126.90395480226" y="173.54330708661416" as="targetPoint" />
          </mxGeometry>
        </mxCell>
        <mxCell id="0-PR4jEMZpkDc8mjO-xp-104" value="&amp;lt;&amp;lt;Extends&amp;gt;&amp;gt;" style="edgeLabel;html=1;align=center;verticalAlign=middle;resizable=0;points=[];" vertex="1" connectable="0" parent="0-PR4jEMZpkDc8mjO-xp-103">
          <mxGeometry x="0.1275" relative="1" as="geometry">
            <mxPoint as="offset" />
          </mxGeometry>
        </mxCell>
        <mxCell id="0-PR4jEMZpkDc8mjO-xp-105" value="" style="endArrow=classic;html=1;rounded=0;" edge="1" parent="0-PR4jEMZpkDc8mjO-xp-109">
          <mxGeometry width="50" height="50" relative="1" as="geometry">
            <mxPoint x="30.677966101694917" y="353.93700787401576" as="sourcePoint" />
            <mxPoint x="30.677966101694917" y="559.4488188976378" as="targetPoint" />
          </mxGeometry>
        </mxCell>
        <mxCell id="0-PR4jEMZpkDc8mjO-xp-106" value="" style="endArrow=classic;html=1;rounded=0;" edge="1" parent="0-PR4jEMZpkDc8mjO-xp-109">
          <mxGeometry width="50" height="50" relative="1" as="geometry">
            <mxPoint x="30.677966101694917" y="959.0551181102362" as="sourcePoint" />
            <mxPoint x="30.677966101694917" y="776.3779527559055" as="targetPoint" />
          </mxGeometry>
        </mxCell>
        <mxCell id="0-PR4jEMZpkDc8mjO-xp-107" value="&lt;font style=&quot;font-size: 20px;&quot;&gt;&lt;span style=&quot;font-size: 20px;&quot;&gt;Gradepilot System&lt;/span&gt;&lt;/font&gt;" style="text;strokeColor=none;align=center;fillColor=none;html=1;verticalAlign=middle;whiteSpace=wrap;rounded=0;fontSize=20;fontStyle=1" vertex="1" parent="0-PR4jEMZpkDc8mjO-xp-109">
          <mxGeometry x="756.723163841808" y="22.834645669291337" width="219.8587570621469" height="34.25196850393701" as="geometry" />
        </mxCell>
        <mxCell id="0-PR4jEMZpkDc8mjO-xp-108" value="" style="rounded=0;whiteSpace=wrap;html=1;fillColor=none;" vertex="1" parent="0-PR4jEMZpkDc8mjO-xp-109">
          <mxGeometry x="92.03389830508475" width="1595.2542372881355" height="1450" as="geometry" />
        </mxCell>
      </root>
    </mxGraphModel>
  </diagram>
</mxfile>
